<svg width="24" height="24" viewBox="0 0 24 24" fill="none" xmlns="http://www.w3.org/2000/svg">
<path fill-rule="evenodd" clip-rule="evenodd" d="M9.84992 12.81H8.45992C8.1912 12.81 7.93377 12.7019 7.74564 12.5101C7.55752 12.3182 7.45454 12.0587 7.45992 11.79V10.4C7.45992 9.84771 7.90763 9.39999 8.45992 9.39999H9.84992C10.4022 9.39999 10.8499 9.84771 10.8499 10.4V11.81C10.8499 12.3623 10.4022 12.81 9.84992 12.81ZM9.36992 10.88H8.93992V11.31H9.36992V10.88Z" fill="#242136"/>
<path d="M8.12988 15.34H12.5599C12.9741 15.34 13.3099 15.0042 13.3099 14.59C13.3099 14.1758 12.9741 13.84 12.5599 13.84H8.12988C7.71567 13.84 7.37988 14.1758 7.37988 14.59C7.37988 15.0042 7.71567 15.34 8.12988 15.34Z" fill="#242136"/>
<path d="M13.9999 16.37H8.12988C7.71567 16.37 7.37988 16.7058 7.37988 17.12C7.37988 17.5342 7.71567 17.87 8.12988 17.87H13.9999C14.4141 17.87 14.7499 17.5342 14.7499 17.12C14.7499 16.7058 14.4141 16.37 13.9999 16.37Z" fill="#242136"/>
<path fill-rule="evenodd" clip-rule="evenodd" d="M19.53 9.44001L12.53 2.44001C12.3827 2.31373 12.194 2.2461 12 2.25001H9C6.37665 2.25001 4.25 4.37666 4.25 7.00001V17C4.25 19.6234 6.37665 21.75 9 21.75H15C17.6234 21.75 19.75 19.6234 19.75 17V10C19.7534 9.79163 19.6743 9.59035 19.53 9.44001ZM12.75 4.79001L17.21 9.25001H14C13.3096 9.25001 12.75 8.69036 12.75 8.00001V4.79001ZM5.75 17C5.75549 18.7927 7.20735 20.2445 9 20.25H15C16.7926 20.2445 18.2445 18.7927 18.25 17V10.75H14C12.4812 10.75 11.25 9.51879 11.25 8.00001V3.75001H9C7.20735 3.7555 5.75549 5.20736 5.75 7.00001V17Z" fill="#242136"/>
</svg>
