<svg width="20" height="20" viewBox="0 0 20 20" fill="none" xmlns="http://www.w3.org/2000/svg">
<path fill-rule="evenodd" clip-rule="evenodd" d="M19.0449 7.98488C18.5132 7.89233 17.9746 7.84549 17.4349 7.84488C14.8897 7.84488 12.449 8.85663 10.6502 10.6573C8.85143 12.4579 7.84223 14.8997 7.84488 17.4449C7.84052 17.9815 7.8874 18.5172 7.98488 19.0449C3.17255 18.2278 -0.258243 13.9264 0.0152648 9.05284C0.288772 4.17931 4.17931 0.288772 9.05284 0.0152648C13.9264 -0.258243 18.2278 3.17255 19.0449 7.98488ZM7.9249 1.64747C4.16941 2.43873 1.48474 5.75696 1.4949 9.59488C1.48592 12.8174 3.39725 15.7355 6.3549 17.0149C6.56974 11.2138 11.2144 6.55603 17.0149 6.32488C15.4757 2.80913 11.6804 0.856201 7.9249 1.64747Z" fill="#242136"/>
<path fill-rule="evenodd" clip-rule="evenodd" d="M17.6449 9.04487C18.1175 9.04421 18.5892 9.08436 19.0549 9.16487C19.1437 9.63294 19.1872 10.1085 19.1849 10.5849C19.1849 12.8303 18.2922 14.9837 16.7035 16.5705C15.1148 18.1574 12.9604 19.0475 10.7149 19.0449C10.2423 19.0455 9.77059 19.0054 9.30492 18.9249C9.21908 18.4565 9.17889 17.981 9.18492 17.5049C9.18492 12.8325 12.9726 9.04487 17.6449 9.04487ZM17.7149 10.5449C13.8489 10.5449 10.7149 13.6789 10.7149 17.5449C12.5714 17.5449 14.3519 16.8074 15.6647 15.4946C16.9774 14.1819 17.7149 12.4014 17.7149 10.5449Z" fill="#242136"/>
</svg>
