<svg width="24" height="24" viewBox="0 0 24 24" fill="none" xmlns="http://www.w3.org/2000/svg">
<path d="M18.1905 5.63855C19.4286 5.63855 20.381 6.60241 20.381 7.85542V16.1446C20.381 17.3976 19.4286 18.3614 18.1905 18.3614H5.80952C4.57143 18.3614 3.61905 17.3976 3.61905 16.1446V7.85542C3.61905 6.60241 4.57143 5.63855 5.80952 5.63855H18.1905ZM18.1905 4H5.80952C3.71429 4 2 5.73494 2 7.85542V16.1446C2 18.2651 3.71429 20 5.80952 20H18.1905C20.2857 20 22 18.2651 22 16.1446V7.85542C22 5.73494 20.2857 4 18.1905 4Z" fill="#242136"/>
<path d="M20.9525 10.3615H18.2858C17.4287 10.3615 16.6667 11.0361 16.6667 12C16.6667 12.8675 17.3334 13.6386 18.2858 13.6386H20.9525" stroke="#242136" stroke-width="1.9028" stroke-linecap="round" stroke-linejoin="round"/>
</svg>
