<svg width="46" height="46" viewBox="0 0 46 46" fill="none" xmlns="http://www.w3.org/2000/svg">
<path d="M26.75 8H11.75C10.7554 8 9.80161 8.39509 9.09835 9.09835C8.39509 9.80161 8 10.7554 8 11.75V30.5M8 30.5V34.25C8 35.2446 8.39509 36.1984 9.09835 36.9016C9.80161 37.6049 10.7554 38 11.75 38H34.25C35.2446 38 36.1984 37.6049 36.9016 36.9016C37.6049 36.1984 38 35.2446 38 34.25V26.75M8 30.5L16.5988 21.9012C17.302 21.1982 18.2556 20.8033 19.25 20.8033C20.2444 20.8033 21.198 21.1982 21.9012 21.9012L26.75 26.75M38 19.25V26.75M38 26.75L35.0262 23.7762C34.323 23.0732 33.3694 22.6783 32.375 22.6783C31.3806 22.6783 30.427 23.0732 29.7238 23.7762L26.75 26.75M26.75 26.75L30.5 30.5M34.25 8H41.75M38 4.25V11.75M26.75 15.5H26.7688" stroke="#242136" stroke-opacity="0.4" stroke-width="2" stroke-linecap="round" stroke-linejoin="round"/>
</svg>
