<svg width="11" height="14" viewBox="0 0 11 14" fill="none" xmlns="http://www.w3.org/2000/svg">
    <path d="M1.69597 5.70951L5.79847 1.60701L9.90097 5.70951C10.1206 5.92885 10.4764 5.92885 10.696 5.70951C10.9153 5.48989 10.9153 5.13412 10.696 4.9145L6.19597 0.414505C5.97636 0.195165 5.62058 0.195165 5.40097 0.414505L0.900969 4.9145C0.69445 5.13614 0.700544 5.48151 0.914753 5.69572C1.12896 5.90993 1.47434 5.91602 1.69597 5.70951Z" fill="#010101" fill-opacity="0.3"/>
    <path d="M9.90097 8.2894L5.79847 12.3919L1.69597 8.2894C1.47434 8.08288 1.12896 8.08897 0.914753 8.30318C0.700544 8.51739 0.69445 8.86276 0.900969 9.0844L5.40097 13.5844C5.62058 13.8037 5.97636 13.8037 6.19597 13.5844L10.696 9.0844C10.9025 8.86276 10.8964 8.51739 10.6822 8.30318C10.468 8.08897 10.1226 8.08288 9.90097 8.2894V8.2894Z" fill="#010101" fill-opacity="0.3"/>
</svg>
