<svg width="22" height="20" viewBox="0 0 22 20" fill="none" xmlns="http://www.w3.org/2000/svg">
    <path fill-rule="evenodd" clip-rule="evenodd" d="M7.61682 0.108764C7.25619 0.128723 6.60351 0.184091 6.2117 0.228013C3.89816 0.48728 2.23285 1.02076 1.45717 1.75107C1.26607 1.93099 1.15155 2.08356 1.03463 2.31397L0.950195 2.48036V9.28591V16.0915L1.04527 16.2781C1.21624 16.6138 1.44199 16.8502 1.8425 17.1131C3.41662 18.1464 6.91494 18.6737 10.5501 18.4256C11.2706 18.3765 11.6801 18.3313 11.7409 18.2942C11.7737 18.2742 11.7211 18.1682 11.5388 17.8868C11.4691 17.7791 11.3596 17.5926 11.2956 17.4722C11.2316 17.3519 11.1772 17.2507 11.1747 17.2473C11.1722 17.244 11.0422 17.2549 10.8858 17.2716C10.313 17.3328 9.83147 17.3521 8.88861 17.3517C7.956 17.3514 7.5233 17.3352 6.75529 17.2721C5.20385 17.1447 3.60856 16.7756 2.72926 16.3408C2.48524 16.2201 2.38666 16.1531 2.21685 15.9925L2.07839 15.8616V14.419C2.07839 13.6256 2.08172 12.9765 2.0858 12.9765C2.08986 12.9765 2.19372 13.0229 2.31657 13.0797C3.96082 13.8394 6.53486 14.2233 9.48348 14.1485C9.92912 14.1372 10.3953 14.1192 10.5194 14.1085C10.6435 14.0978 10.7556 14.0889 10.7685 14.0889C10.7815 14.0888 10.8028 14.0278 10.816 13.9534C10.8291 13.879 10.8997 13.6231 10.9728 13.3847C11.0459 13.1463 11.1024 12.948 11.0983 12.9439C11.0942 12.9399 10.9484 12.9521 10.7743 12.971C10.5049 13.0003 10.2335 13.0055 8.95015 13.0053C7.38154 13.0052 6.96199 12.9909 6.33256 12.9162C4.67185 12.7189 3.29102 12.3571 2.5748 11.9315C2.4699 11.8691 2.31527 11.7548 2.23121 11.6774L2.07839 11.5367V10.0954V8.65413L2.42198 8.80525C3.61724 9.33096 5.26793 9.6673 7.32964 9.80519C7.85992 9.84066 9.771 9.84084 10.2732 9.80547C12.0083 9.68327 13.2886 9.4668 14.3655 9.11358C14.7194 8.99748 15.1675 8.82089 15.3932 8.70857L15.5088 8.6511L15.5216 8.7562C15.5286 8.81399 15.5345 9.05467 15.5345 9.29101L15.5347 9.72072H16.1084H16.6821L16.6695 6.09593L16.6571 2.47114L16.57 2.29925C16.4585 2.07891 16.3316 1.9135 16.1362 1.7336C15.3457 1.00577 13.6761 0.476966 11.3501 0.21768C11.1527 0.195678 10.8158 0.168075 10.6014 0.156347C9.81166 0.113132 8.04673 0.0850034 7.61682 0.108764ZM10.1399 1.24835C12.5392 1.38008 14.6671 1.91756 15.3648 2.5681C15.5548 2.74525 15.5706 2.81975 15.45 2.96987C15.2864 3.17357 14.8334 3.4298 14.2764 3.63368C12.5505 4.26546 9.65105 4.54153 6.96042 4.33025C5.24373 4.19545 3.75847 3.86619 2.80208 3.40843C2.3932 3.2127 2.07839 2.95018 2.07839 2.80492C2.07839 2.55114 2.86112 2.10294 3.7912 1.82416C4.68057 1.55759 6.20893 1.31193 7.36476 1.24979C7.81744 1.22546 9.70503 1.22447 10.1399 1.24835ZM2.28336 4.42248C2.81662 4.6868 3.69906 4.96271 4.57069 5.13769C5.86059 5.39661 7.22509 5.52009 8.7963 5.52009C10.6491 5.52009 12.2814 5.34232 13.6968 4.98639C14.3002 4.83466 14.9915 4.59184 15.3972 4.38917C15.4525 4.36155 15.5038 4.34487 15.5111 4.35211C15.5185 4.35935 15.5274 5.00831 15.5311 5.79428L15.5377 7.22331L15.3775 7.36312C15.19 7.52674 15.0732 7.60318 14.8174 7.72965C14.0228 8.12238 12.6429 8.44496 10.9706 8.62892C10.6681 8.6622 10.3854 8.67492 9.70672 8.68586C8.68545 8.7023 7.17122 8.68295 6.8476 8.64934C5.34615 8.49339 4.15073 8.25414 3.28864 7.93706C2.77275 7.74732 2.49609 7.59683 2.22711 7.3596L2.07839 7.22846V5.81705C2.07839 4.54464 2.08299 4.34167 2.11181 4.34167C2.11651 4.34167 2.1937 4.37803 2.28336 4.42248ZM15.5245 10.1987C15.0347 10.249 14.4086 10.4366 13.904 10.6842C12.5576 11.345 11.5553 12.6283 11.259 14.0709C11.1558 14.5736 11.1462 15.4691 11.2389 15.951C11.4688 17.146 12.2126 18.289 13.227 19.0066C13.8677 19.4597 14.655 19.7754 15.3911 19.8744C15.6473 19.9088 16.5677 19.9086 16.827 19.874C17.4641 19.7891 18.246 19.4937 18.8128 19.1241C19.1218 18.9225 19.2858 18.7904 19.5699 18.5142C21.279 16.8528 21.5388 14.2446 20.1891 12.299C19.5163 11.3292 18.5142 10.6327 17.3517 10.327C16.96 10.2239 16.7651 10.2025 16.1604 10.1961C15.8557 10.1929 15.5696 10.194 15.5245 10.1987ZM16.4065 11.3185C16.5645 11.3296 16.7727 11.352 16.8692 11.3682C17.4769 11.4706 18.2973 11.9087 18.8118 12.4056C19.2804 12.8581 19.7484 13.7186 19.8428 14.301C19.9063 14.6923 19.9011 15.478 19.8328 15.8376C19.7015 16.528 19.2131 17.3461 18.6367 17.8407C18.1802 18.2326 17.4668 18.6039 16.9706 18.7078C16.6975 18.7651 16.1539 18.7894 15.7449 18.7627C15.5447 18.7496 15.3347 18.7293 15.2783 18.7177C14.8383 18.6267 14.1418 18.2886 13.7201 17.9613C13.2767 17.6171 12.9513 17.2018 12.6634 16.6131C12.3904 16.0546 12.327 15.7624 12.3264 15.0593C12.3257 14.2923 12.3868 14.0275 12.7139 13.3781C12.9225 12.9638 13.1552 12.6523 13.4976 12.3289C13.9478 11.9037 14.471 11.6078 15.0834 11.4319C15.513 11.3085 15.8506 11.2796 16.4065 11.3185ZM15.8377 12.046C15.657 12.0683 15.5822 12.0932 15.3604 12.2048C15.214 12.2784 15.1396 12.3334 15.0014 12.4702C14.8047 12.6649 14.713 12.8053 14.6283 13.0412C14.5474 13.2664 14.5091 13.5062 14.5091 13.7864V14.0249L14.3193 14.1543C13.994 14.3763 13.9831 14.421 13.9637 15.6131C13.9497 16.4745 13.9656 16.7433 14.0393 16.8935C14.1018 17.0207 14.2935 17.2052 14.4333 17.2726C14.5434 17.3257 14.5665 17.3287 15.0055 17.3454C15.5904 17.3678 16.6263 17.3678 17.2092 17.3455C17.598 17.3307 17.6769 17.3222 17.7585 17.2866C17.8706 17.2377 18.0828 17.0449 18.1511 16.9299C18.2413 16.7778 18.2463 16.7065 18.2437 15.5957L18.2412 14.5447L18.1603 14.4223C18.0631 14.2753 17.9829 14.1974 17.8306 14.1025L17.7162 14.0313L17.6932 13.6505C17.6686 13.2445 17.6445 13.1305 17.5399 12.9259C17.4374 12.7255 17.3321 12.5881 17.1558 12.4245C16.9614 12.2443 16.7347 12.1226 16.5091 12.0774C16.319 12.0393 16.009 12.0248 15.8377 12.046ZM16.3237 12.7041C16.5012 12.7497 16.6304 12.8272 16.7645 12.9686C16.9726 13.1878 17.0317 13.3694 17.032 13.7904L17.0321 14.0078H16.1091H15.186V13.756C15.186 13.4577 15.2096 13.3309 15.2944 13.1722C15.4952 12.7967 15.9243 12.6016 16.3237 12.7041ZM17.5609 14.7052C17.5751 14.7169 17.5739 16.5911 17.5596 16.6296C17.5447 16.6698 17.524 16.6742 17.2827 16.6879C16.9889 16.7047 14.8161 16.6857 14.731 16.6656C14.7007 16.6585 14.6692 16.6377 14.661 16.6194C14.6418 16.5767 14.6232 14.8597 14.641 14.7665L14.6543 14.6964L14.9663 14.6895C15.2773 14.6827 17.5501 14.6964 17.5609 14.7052ZM16.015 15.0517C15.9366 15.0916 15.846 15.1772 15.8098 15.2454C15.7645 15.331 15.7754 15.4191 15.8465 15.5417C15.9093 15.6498 15.9128 15.6674 15.9248 15.9367L15.9374 16.2186L16.0071 16.276C16.0929 16.3466 16.149 16.3485 16.2116 16.2828C16.2547 16.2376 16.2622 16.2011 16.2841 15.934C16.3062 15.6621 16.3141 15.6252 16.3729 15.5173C16.4417 15.3908 16.4501 15.3379 16.4154 15.2477C16.3541 15.0883 16.1446 14.9857 16.015 15.0517Z" fill="#242136"/>
</svg>
