<svg width="22" height="19" viewBox="0 0 22 19" fill="none" xmlns="http://www.w3.org/2000/svg">
<path fill-rule="evenodd" clip-rule="evenodd" d="M10.3104 13.54L6.58037 9.82C6.42221 9.66239 6.33331 9.44829 6.33331 9.225C6.33331 9.00171 6.42221 8.78761 6.58037 8.63C6.913 8.31126 7.43773 8.31126 7.77037 8.63L10.0604 10.93V0.84C10.0604 0.376081 10.4364 0 10.9004 0C11.3643 0 11.7404 0.376081 11.7404 0.84V10.93L14.0304 8.63C14.363 8.31126 14.8877 8.31126 15.2204 8.63C15.3785 8.78761 15.4674 9.00171 15.4674 9.225C15.4674 9.44829 15.3785 9.66239 15.2204 9.82L11.4904 13.54C11.3364 13.7009 11.123 13.7913 10.9004 13.79C10.6772 13.7937 10.4629 13.7029 10.3104 13.54ZM16.1204 5.42H17.3304C19.8466 5.47468 21.845 7.55356 21.8004 10.07V13.88C21.845 16.3964 19.8466 18.4753 17.3304 18.53L4.47038 18.45C1.95413 18.3953 -0.0442775 16.3164 0.000374881 13.8V9.99C-0.0291336 8.77617 0.425615 7.60049 1.26425 6.72245C2.10289 5.84442 3.25647 5.33621 4.47038 5.31H5.68038C6.14429 5.31 6.52037 5.68608 6.52037 6.15C6.52037 6.61392 6.14429 6.99 5.68038 6.99H4.47038C3.70103 7.01337 2.97305 7.34373 2.44888 7.90736C1.9247 8.47099 1.64795 9.22098 1.68037 9.99V13.77C1.64795 14.539 1.9247 15.289 2.44888 15.8526C2.97305 16.4163 3.70103 16.7466 4.47038 16.77L17.3304 16.91C18.0997 16.8866 18.8277 16.5563 19.3519 15.9926C19.876 15.429 20.1528 14.679 20.1204 13.91V10.1C20.1528 9.33098 19.876 8.58099 19.3519 8.01736C18.8277 7.45373 18.0997 7.12337 17.3304 7.1H16.1204C15.6565 7.1 15.2804 6.72392 15.2804 6.26C15.2804 5.79608 15.6565 5.42 16.1204 5.42Z" fill="#242136"/>
</svg>
