<svg width="20" height="18" viewBox="0 0 20 18" fill="none" xmlns="http://www.w3.org/2000/svg">
    <path fill-rule="evenodd" clip-rule="evenodd" d="M16 0.5H4C1.79086 0.5 0 2.29086 0 4.5V13.5C0 15.7091 1.79086 17.5 4 17.5H16C18.2091 17.5 20 15.7091 20 13.5V4.5C20 2.29086 18.2091 0.5 16 0.5ZM4 2.09H16C17.0657 2.09204 18.0025 2.79663 18.3 3.82L10.76 9.41C10.5534 9.61204 10.2732 9.72095 9.98433 9.71151C9.69548 9.70207 9.42301 9.5751 9.23 9.36L1.72 3.83C2.01175 2.80973 2.9389 2.10216 4 2.09ZM1.59 13.5C1.59 14.831 2.66899 15.91 4 15.91H16C17.3271 15.9045 18.4 14.8271 18.4 13.5V5.47L11.6 10.47C11.1654 10.8746 10.5938 11.0997 10 11.1C9.38274 11.0902 8.79115 10.8514 8.34 10.43L1.59 5.43V13.5Z" fill="#242136"/>
</svg>
