<svg width="18" height="18" viewBox="0 0 18 18" fill="none" xmlns="http://www.w3.org/2000/svg">
    <path fill-rule="evenodd" clip-rule="evenodd" d="M8.58 1.5H9.42C13.3302 1.5 16.5 4.66982 16.5 8.58V9.42C16.5 13.3302 13.3302 16.5 9.42 16.5H8.58C4.66982 16.5 1.5 13.3302 1.5 9.42V8.58C1.5 4.66982 4.66982 1.5 8.58 1.5ZM9.42 15.375C12.6987 15.3505 15.3505 12.6987 15.375 9.42V8.58C15.3505 5.30135 12.6987 2.6495 9.42 2.625H8.58C5.30135 2.6495 2.6495 5.30135 2.625 8.58V9.42C2.6495 12.6987 5.30135 15.3505 8.58 15.375H9.42Z" fill="#242136"/>
    <path d="M12 8.4375H9.5625V6C9.5625 5.68934 9.31066 5.4375 9 5.4375C8.68934 5.4375 8.4375 5.68934 8.4375 6V8.4375H6C5.68934 8.4375 5.4375 8.68934 5.4375 9C5.4375 9.31066 5.68934 9.5625 6 9.5625H8.4375V12C8.4375 12.3107 8.68934 12.5625 9 12.5625C9.31066 12.5625 9.5625 12.3107 9.5625 12V9.5625H12C12.3107 9.5625 12.5625 9.31066 12.5625 9C12.5625 8.68934 12.3107 8.4375 12 8.4375Z" fill="#242136"/>
</svg>
