<svg width="24" height="24" viewBox="0 0 24 24" fill="none" xmlns="http://www.w3.org/2000/svg">
    <path d="M18.79 7.00012C18.3537 7.00012 18 7.35382 18 7.79012V16.6301C18 18.4913 16.4912 20.0001 14.63 20.0001H8.95C7.0888 20.0001 5.58 18.4913 5.58 16.6301V7.79012C5.58 7.35382 5.22631 7.00012 4.79 7.00012C4.3537 7.00012 4 7.35382 4 7.79012V16.6301C4.02742 19.372 6.25799 21.5803 9 21.5801H14.68C17.4025 21.553 19.6029 19.3526 19.63 16.6301V7.79012C19.6304 7.57164 19.5404 7.36274 19.3812 7.21306C19.2221 7.06338 19.008 6.98629 18.79 7.00012Z" fill="#FA1919"/>
    <path fill-rule="evenodd" clip-rule="evenodd" d="M18.79 5.58H4.79C4.3537 5.58 4 5.22631 4 4.79C4 4.35369 4.3537 4 4.79 4H7.44L8.62 2.72C9.07107 2.26141 9.68675 2.00218 10.33 2H13.25C13.8839 1.99999 14.4918 2.25179 14.94 2.7L16.14 4H18.79C19.2263 4 19.58 4.35369 19.58 4.79C19.58 5.22631 19.2263 5.58 18.79 5.58ZM13.25 3.58H10.33C10.1301 3.58007 9.93744 3.65499 9.79 3.79L9.6 3.99H13.98L13.79 3.79C13.6436 3.65326 13.4503 3.57807 13.25 3.58Z" fill="#FA1919"/>
    <path d="M8.04004 8.79004V11.79C8.04004 12.2043 8.37583 12.54 8.79004 12.54C9.20425 12.54 9.54004 12.2043 9.54004 11.79V8.79004C9.54004 8.37583 9.20425 8.04004 8.79004 8.04004C8.37583 8.04004 8.04004 8.37583 8.04004 8.79004Z" fill="#FA1919"/>
    <path d="M11.04 8.79004V16.79C11.04 17.2043 11.3758 17.54 11.79 17.54C12.2043 17.54 12.54 17.2043 12.54 16.79V8.79004C12.54 8.37583 12.2043 8.04004 11.79 8.04004C11.3758 8.04004 11.04 8.37583 11.04 8.79004Z" fill="#FA1919"/>
    <path d="M14.04 8.79004V11.79C14.04 12.2043 14.3758 12.54 14.79 12.54C15.2043 12.54 15.54 12.2043 15.54 11.79V8.79004C15.54 8.37583 15.2043 8.04004 14.79 8.04004C14.3758 8.04004 14.04 8.37583 14.04 8.79004Z" fill="#FA1919"/>
</svg>
