<svg width="24" height="24" viewBox="0 0 24 24" fill="none" xmlns="http://www.w3.org/2000/svg">
    <path fill-rule="evenodd" clip-rule="evenodd" d="M22.75 16C22.75 20.41 21.41 21.75 17 21.75V20.25C20.58 20.25 21.25 19.57 21.25 16H22.75ZM7 20.25C3.42 20.25 2.75 19.57 2.75 16H1.25C1.25 20.41 2.59 21.75 7 21.75V20.25ZM2.75 8H1.25C1.25 3.59 2.59 2.25 7 2.25V3.75C3.42 3.75 2.75 4.43 2.75 8ZM21.25 8C21.25 4.43 20.58 3.75 17 3.75V2.25C21.41 2.25 22.75 3.59 22.75 8H21.25Z" fill="#242136"/>
    <path d="M13.5352 17.1948C13.8482 18.5909 14.2826 19.1801 15.9967 19.6512" stroke="#242136"/>
    <path d="M11.0742 17.1948C10.7611 18.5909 10.3267 19.1801 8.61268 19.6512" stroke="#242136"/>
    <path d="M12.324 17.6473C9.60248 17.6473 7.38281 14.0628 7.38281 9.50213C7.38281 6.99017 9.60248 4.94141 12.324 4.94141C15.0455 4.94141 17.2652 6.99017 17.2652 9.50213C17.2652 14.0628 15.0455 17.6473 12.324 17.6473ZM12.324 6.35317C9.72105 6.35317 8.79458 8.47082 8.79458 9.50213C8.79458 14.1179 10.5372 16.2355 12.324 16.2355C14.0225 16.2355 15.8534 14.1179 15.8534 9.50213C15.8534 8.3162 14.9269 6.35317 12.324 6.35317Z" fill="#242136"/>
    <path d="M21.4573 11.6681H3V12.2822H21.4573V11.6681Z" fill="#242136"/>
</svg>
