<svg width="18" height="20" viewBox="0 0 18 20" fill="none" xmlns="http://www.w3.org/2000/svg">
<path fill-rule="evenodd" clip-rule="evenodd" d="M2.78977 11.27H6.78977C8.05075 11.2477 9.09243 12.2491 9.11977 13.51V17.51C9.11429 18.7725 8.09222 19.7945 6.82977 19.8H2.82977C1.56883 19.8167 0.531682 18.8109 0.509766 17.55V13.55C0.509766 12.2908 1.53056 11.27 2.78977 11.27ZM6.78977 18.3C7.22607 18.3 7.57977 17.9463 7.57977 17.51V13.51C7.57978 13.3014 7.49623 13.1015 7.34778 12.9549C7.19934 12.8083 6.99836 12.7273 6.78977 12.73H2.78977C2.5829 12.73 2.3845 12.8122 2.23822 12.9585C2.09194 13.1047 2.00977 13.3031 2.00977 13.51V17.51C2.00973 17.9424 2.35737 18.2945 2.78977 18.3H6.78977Z" fill="#242136"/>
<path d="M6.14 14.78H5.56V14.21C5.56 13.7958 5.22421 13.46 4.81 13.46C4.39579 13.46 4.06 13.7958 4.06 14.21V14.78H3.5C3.08579 14.78 2.75 15.1158 2.75 15.53C2.75 15.9442 3.08579 16.28 3.5 16.28H4.07V16.86C4.07 17.2742 4.40579 17.61 4.82 17.61C5.23421 17.61 5.57 17.2742 5.57 16.86V16.28H6.15C6.56421 16.28 6.9 15.9442 6.9 15.53C6.9 15.1158 6.56421 14.78 6.15 14.78H6.14Z" fill="#242136"/>
<path fill-rule="evenodd" clip-rule="evenodd" d="M10.5497 0.430007L17.5497 7.43001C17.6985 7.58154 17.7781 7.7878 17.7697 8.00001V15C17.7697 17.6234 15.6431 19.75 13.0197 19.75H10.1497C9.73549 19.75 9.3997 19.4142 9.3997 19C9.3997 18.5858 9.73549 18.25 10.1497 18.25H13.0197C14.8146 18.25 16.2697 16.7949 16.2697 15V8.75001H12.0197C10.5009 8.75001 9.2697 7.51879 9.2697 6.00001V1.74001H7.0197C5.22316 1.74552 3.76969 3.20346 3.7697 5.00001V10C3.7697 10.4142 3.43391 10.75 3.0197 10.75C2.60549 10.75 2.2697 10.4142 2.2697 10V5.00001C2.25903 3.73331 2.75476 2.51483 3.64672 1.61536C4.53868 0.715894 5.75296 0.209962 7.0197 0.210007H10.0197C10.2185 0.210182 10.4092 0.289314 10.5497 0.430007ZM10.7697 2.77001V6.00001C10.7752 6.68645 11.3332 7.24003 12.0197 7.24001H15.2397L10.7697 2.77001Z" fill="#242136"/>
</svg>
