<svg width="24" height="24" viewBox="0 0 24 24" fill="none" xmlns="http://www.w3.org/2000/svg">
    <path d="M17.1163 21.5H6.88372C2.37116 21.5 1 20.1944 1 15.8974V8.10256C1 3.80564 2.37116 2.5 6.88372 2.5H17.1163C21.6288 2.5 23 3.80564 23 8.10256V15.8974C23 20.1944 21.6288 21.5 17.1163 21.5ZM6.88372 3.96154C3.22047 3.96154 2.53488 4.6241 2.53488 8.10256V15.8974C2.53488 19.3759 3.22047 20.0385 6.88372 20.0385H17.1163C20.7795 20.0385 21.4651 19.3759 21.4651 15.8974V8.10256C21.4651 4.6241 20.7795 3.96154 17.1163 3.96154H6.88372Z" fill="#010101"/>
    <path d="M6.28038 4.94026L6.1112 5.35725L6.28038 4.94026ZM9.36241 8.35636L9.7961 8.2363L9.36241 8.35636ZM9.83786 13.2895L10.2591 13.4478L9.83786 13.2895ZM10.0425 14.4884L10.2719 14.8755L10.2953 14.8617L10.3169 14.8451L10.0425 14.4884ZM9.77163 14.886L9.32167 14.8803L9.77163 14.886ZM9.40225 15.2013L9.83159 15.3361L9.40225 15.2013ZM9.30973 16.8685L9.71222 17.0697L9.30973 16.8685ZM8.70043 17.2342L8.65875 16.7861L8.70043 17.2342ZM5.09574 15.0932C5.03602 14.852 4.79204 14.7048 4.55079 14.7645C4.30955 14.8242 4.16239 15.0682 4.22211 15.3095L5.09574 15.0932ZM5.45755 18.057L5.0231 18.1743L5.02964 18.1985L5.03884 18.2219L5.45755 18.057ZM10.6515 12.5378L11.057 12.3427L10.6515 12.5378ZM2.33783 5.36543C3.09071 5.10443 3.7111 4.97665 4.29719 4.9735C4.87959 4.97037 5.45302 5.09022 6.1112 5.35725L6.44955 4.52327C5.70357 4.22062 5.01326 4.06964 4.29235 4.07351C3.57512 4.07736 2.85262 4.23442 2.04303 4.51508L2.33783 5.36543ZM6.1112 5.35725C7.62234 5.97032 8.60839 7.3193 8.92872 8.47642L9.7961 8.2363C9.40948 6.83973 8.24713 5.25255 6.44955 4.52327L6.1112 5.35725ZM8.92872 8.47642C9.00956 8.76843 8.98923 9 8.95324 9.29286C8.91731 9.58519 8.86097 9.95926 8.96333 10.412L9.84118 10.2136C9.77851 9.93638 9.80815 9.71478 9.84651 9.40265C9.88481 9.09107 9.92707 8.7094 9.7961 8.2363L8.92872 8.47642ZM8.96333 10.412C9.05824 10.8318 9.35579 11.3244 9.61069 11.7216C9.89503 12.1647 10.1374 12.5072 10.246 12.7329L11.057 12.3427C10.9166 12.051 10.6089 11.6107 10.3681 11.2356C10.0979 10.8145 9.89535 10.4532 9.84118 10.2136L8.96333 10.412ZM10.3331 12.4215C10.3071 12.4398 10.2708 12.4585 10.2106 12.4827C10.1809 12.4946 10.0474 12.5439 9.98462 12.5707C9.79703 12.6507 9.54257 12.796 9.41662 13.1312L10.2591 13.4478C10.2593 13.4472 10.2473 13.4371 10.3378 13.3985C10.3627 13.3878 10.3905 13.3771 10.4265 13.3636C10.4599 13.3511 10.5031 13.3351 10.5458 13.3179C10.6325 13.2832 10.7419 13.2342 10.8504 13.158L10.3331 12.4215ZM9.41662 13.1312C9.3284 13.366 9.37723 13.5927 9.42292 13.7374C9.46958 13.8852 9.54375 14.0361 9.58954 14.1343C9.64662 14.2566 9.66638 14.3108 9.67078 14.336C9.67123 14.3385 9.65825 14.2162 9.76813 14.1317L10.3169 14.8451C10.5727 14.6483 10.5897 14.3664 10.5574 14.1811C10.529 14.0185 10.4531 13.8566 10.4051 13.7537C10.3458 13.6266 10.3054 13.5432 10.2811 13.4664C10.2559 13.3865 10.2776 13.3986 10.2591 13.4478L9.41662 13.1312ZM9.81309 14.1013C9.83609 14.0876 9.81888 14.1038 9.69829 14.0997C9.67694 14.0989 9.57792 14.0933 9.53851 14.0931C9.51712 14.093 9.45226 14.0925 9.382 14.1103C9.34743 14.1191 9.26888 14.1423 9.19183 14.2068C9.0975 14.2857 9.02659 14.4106 9.02659 14.5603H9.92659C9.92659 14.6231 9.91299 14.6901 9.88142 14.7542C9.8504 14.8173 9.80878 14.864 9.76956 14.8969C9.6979 14.9569 9.62731 14.9766 9.60302 14.9827C9.55332 14.9953 9.51828 14.9931 9.53396 14.9931C9.54018 14.9932 9.55186 14.9936 9.5782 14.995C9.60103 14.9962 9.63333 14.998 9.66732 14.9991C9.73479 15.0015 9.82745 15.0022 9.92596 14.9894C10.0226 14.9768 10.1493 14.9482 10.2719 14.8755L9.81309 14.1013ZM9.02659 14.5603C9.02659 14.667 9.06279 14.7486 9.09047 14.7964C9.11817 14.8443 9.14891 14.8784 9.16837 14.8982C9.20599 14.9365 9.24494 14.9645 9.26319 14.9774C9.28419 14.9922 9.30797 15.0078 9.32194 15.0171C9.33886 15.0283 9.3513 15.0367 9.36239 15.0446C9.38804 15.0631 9.38609 15.0652 9.37552 15.052C9.36286 15.0363 9.32045 14.9759 9.32167 14.8803L10.2216 14.8917C10.2239 14.7103 10.1452 14.5731 10.0774 14.4887C10.0117 14.4068 9.93585 14.3484 9.88747 14.3137C9.86154 14.2951 9.83693 14.2787 9.8191 14.2669C9.79831 14.2531 9.78963 14.2474 9.7828 14.2425C9.77322 14.2358 9.78897 14.2457 9.81034 14.2674C9.82167 14.279 9.84603 14.3052 9.86938 14.3456C9.89271 14.3859 9.92659 14.4604 9.92659 14.5603H9.02659ZM9.32167 14.8803C9.32222 14.8373 9.33263 14.7898 9.35571 14.7443C9.37782 14.7008 9.40485 14.6723 9.423 14.6565C9.45022 14.6327 9.4678 14.6295 9.42448 14.6482C9.41851 14.6508 9.37526 14.669 9.3566 14.6772C9.3294 14.6892 9.29101 14.7069 9.25087 14.7304C9.17787 14.7732 9.03373 14.8728 8.97291 15.0666L9.83159 15.3361C9.81273 15.3962 9.78108 15.4398 9.75441 15.4674C9.72989 15.4928 9.70947 15.5048 9.70613 15.5068C9.70253 15.5089 9.70469 15.5073 9.71969 15.5007C9.74325 15.4903 9.74389 15.4906 9.78114 15.4745C9.82428 15.4559 9.92566 15.4125 10.0154 15.334C10.1235 15.2395 10.2191 15.0906 10.2216 14.8917L9.32167 14.8803ZM8.97291 15.0666C8.94572 15.1532 8.93883 15.2424 8.93602 15.3023C8.93284 15.37 8.93351 15.4438 8.93546 15.5157C8.93883 15.6398 8.94989 15.847 8.95454 15.9859C8.96002 16.1498 8.96092 16.3035 8.95053 16.4348C8.93938 16.5757 8.91813 16.6454 8.90724 16.6672L9.71222 17.0697C9.80236 16.8894 9.83403 16.6789 9.84773 16.5058C9.86218 16.3231 9.85984 16.1291 9.85403 15.9558C9.8474 15.7576 9.83912 15.6384 9.83513 15.4913C9.8334 15.4274 9.83339 15.3794 9.83503 15.3445C9.83704 15.3018 9.84046 15.3079 9.83159 15.3361L8.97291 15.0666ZM8.90724 16.6672C8.88624 16.7092 8.87014 16.7295 8.86192 16.7384C8.85491 16.746 8.85055 16.7488 8.84611 16.7511C8.82957 16.7597 8.78919 16.774 8.65875 16.7861L8.74212 17.6823C8.888 17.6687 9.08014 17.6443 9.26309 17.5487C9.46302 17.4441 9.60687 17.2804 9.71222 17.0697L8.90724 16.6672ZM8.65875 16.7861C8.05656 16.8421 7.29742 16.6071 6.64207 16.3191C6.32402 16.1793 6.04808 16.035 5.85177 15.9257C5.75384 15.8712 5.67632 15.8257 5.62393 15.7943C5.59776 15.7785 5.5779 15.7664 5.56496 15.7583C5.55849 15.7543 5.55375 15.7514 5.55082 15.7495C5.54935 15.7486 5.54834 15.748 5.54779 15.7476C5.54751 15.7474 5.54735 15.7473 5.54731 15.7473C5.54729 15.7473 5.54729 15.7473 5.54733 15.7473C5.54735 15.7473 5.5474 15.7474 5.54741 15.7474C5.54746 15.7474 5.54753 15.7474 5.30574 16.127C5.06396 16.5065 5.06404 16.5066 5.06413 16.5066C5.06416 16.5066 5.06426 16.5067 5.06434 16.5067C5.06449 16.5068 5.06468 16.507 5.06489 16.5071C5.06532 16.5074 5.06587 16.5077 5.06653 16.5081C5.06787 16.509 5.06967 16.5101 5.07194 16.5115C5.07647 16.5144 5.08286 16.5184 5.09101 16.5234C5.10733 16.5335 5.13076 16.5479 5.1607 16.5659C5.22055 16.6018 5.30659 16.6523 5.41398 16.7121C5.6283 16.8314 5.92998 16.9892 6.27991 17.143C6.96049 17.4421 7.8987 17.7607 8.74212 17.6823L8.65875 16.7861ZM5.59673 15.7837C5.42739 15.6402 5.33103 15.5533 5.25866 15.4587C5.19478 15.3752 5.13998 15.2719 5.09574 15.0932L4.22211 15.3095C4.29205 15.592 4.39544 15.8115 4.54381 16.0055C4.68369 16.1883 4.85364 16.3337 5.01476 16.4702L5.59673 15.7837ZM4.85579 16.1204C4.8439 16.9385 4.82307 17.4334 5.0231 18.1743L5.89199 17.9397C5.72994 17.3395 5.74354 16.9697 5.7557 16.1335L4.85579 16.1204ZM5.03884 18.2219C5.15711 18.5222 5.43704 19.0011 5.74639 19.5038C6.0629 20.0182 6.44018 20.6046 6.77109 21.1287L7.5321 20.6482C7.19488 20.1141 6.82597 19.5409 6.5129 19.0321C6.19268 18.5117 5.95966 18.1039 5.87626 17.8921L5.03884 18.2219ZM10.246 12.7329C10.2043 12.6462 10.2139 12.5052 10.3331 12.4215L10.8504 13.158C11.1313 12.9607 11.1844 12.6074 11.057 12.3427L10.246 12.7329Z" fill="#010101"/>
    <path d="M17.7186 4.94026L17.8878 5.35725L17.7186 4.94026ZM14.6366 8.35636L14.2029 8.2363L14.6366 8.35636ZM14.1612 13.2895L13.7399 13.4478L14.1612 13.2895ZM13.9565 14.4884L13.7271 14.8755L13.7037 14.8617L13.6821 14.8451L13.9565 14.4884ZM14.2274 14.886L14.6774 14.8803L14.2274 14.886ZM14.5968 15.2013L14.1674 15.3361L14.5968 15.2013ZM14.6893 16.8685L14.2868 17.0697L14.6893 16.8685ZM15.2986 17.2342L15.3403 16.7861L15.2986 17.2342ZM18.9033 15.0932C18.963 14.852 19.207 14.7048 19.4482 14.7645C19.6895 14.8242 19.8366 15.0682 19.7769 15.3095L18.9033 15.0932ZM18.5415 18.057L18.9759 18.1743L18.9694 18.1985L18.9602 18.2219L18.5415 18.057ZM13.3475 12.5378L12.942 12.3427L13.3475 12.5378ZM21.6612 5.36543C20.9083 5.10443 20.2879 4.97665 19.7018 4.9735C19.1194 4.97037 18.546 5.09022 17.8878 5.35725L17.5495 4.52327C18.2955 4.22062 18.9858 4.06964 19.7067 4.07351C20.4239 4.07736 21.1464 4.23442 21.956 4.51508L21.6612 5.36543ZM17.8878 5.35725C16.3767 5.97032 15.3906 7.3193 15.0703 8.47642L14.2029 8.2363C14.5895 6.83973 15.7519 5.25255 17.5495 4.52327L17.8878 5.35725ZM15.0703 8.47642C14.9895 8.76843 15.0098 9 15.0458 9.29286C15.0817 9.58519 15.1381 9.95926 15.0357 10.412L14.1578 10.2136C14.2205 9.93638 14.1909 9.71478 14.1525 9.40265C14.1142 9.09107 14.072 8.7094 14.2029 8.2363L15.0703 8.47642ZM15.0357 10.412C14.9408 10.8318 14.6432 11.3244 14.3883 11.7216C14.104 12.1647 13.8616 12.5072 13.753 12.7329L12.942 12.3427C13.0824 12.051 13.3901 11.6107 13.6309 11.2356C13.9011 10.8145 14.1037 10.4532 14.1578 10.2136L15.0357 10.412ZM13.6659 12.4215C13.6919 12.4398 13.7282 12.4585 13.7884 12.4827C13.8181 12.4946 13.9516 12.5439 14.0144 12.5707C14.202 12.6507 14.4565 12.796 14.5824 13.1312L13.7399 13.4478C13.7397 13.4472 13.7517 13.4371 13.6612 13.3985C13.6363 13.3878 13.6085 13.3771 13.5725 13.3636C13.5391 13.3511 13.4959 13.3351 13.4532 13.3179C13.3666 13.2832 13.2571 13.2342 13.1486 13.158L13.6659 12.4215ZM14.5824 13.1312C14.6706 13.366 14.6218 13.5927 14.5761 13.7374C14.5294 13.8852 14.4553 14.0361 14.4095 14.1343C14.3524 14.2566 14.3326 14.3108 14.3282 14.336C14.3278 14.3385 14.3408 14.2162 14.2309 14.1317L13.6821 14.8451C13.4263 14.6483 13.4093 14.3664 13.4417 14.1811C13.4701 14.0185 13.5459 13.8566 13.5939 13.7537C13.6532 13.6266 13.6936 13.5432 13.7179 13.4664C13.7431 13.3865 13.7215 13.3986 13.7399 13.4478L14.5824 13.1312ZM14.1859 14.1013C14.1629 14.0876 14.1801 14.1038 14.3007 14.0997C14.3221 14.0989 14.4211 14.0933 14.4605 14.0931C14.4819 14.093 14.5468 14.0925 14.617 14.1103C14.6516 14.1191 14.7301 14.1423 14.8072 14.2068C14.9015 14.2857 14.9724 14.4106 14.9724 14.5603H14.0724C14.0724 14.6231 14.086 14.6901 14.1176 14.7542C14.1486 14.8173 14.1902 14.864 14.2295 14.8969C14.3011 14.9569 14.3717 14.9766 14.396 14.9827C14.4457 14.9953 14.4807 14.9931 14.4651 14.9931C14.4588 14.9932 14.4472 14.9936 14.4208 14.995C14.398 14.9962 14.3657 14.998 14.3317 14.9991C14.2642 15.0015 14.1716 15.0022 14.0731 14.9894C13.9764 14.9768 13.8497 14.9482 13.7271 14.8755L14.1859 14.1013ZM14.9724 14.5603C14.9724 14.667 14.9362 14.7486 14.9086 14.7964C14.8809 14.8443 14.8501 14.8784 14.8307 14.8982C14.793 14.9365 14.7541 14.9645 14.7358 14.9774C14.7148 14.9922 14.6911 15.0078 14.6771 15.0171C14.6602 15.0283 14.6477 15.0367 14.6366 15.0446C14.611 15.0631 14.6129 15.0652 14.6235 15.052C14.6362 15.0363 14.6786 14.9759 14.6774 14.8803L13.7774 14.8917C13.7751 14.7103 13.8539 14.5731 13.9216 14.4887C13.9873 14.4068 14.0632 14.3484 14.1116 14.3137C14.1375 14.2951 14.1621 14.2787 14.1799 14.2669C14.2007 14.2531 14.2094 14.2474 14.2162 14.2425C14.2258 14.2358 14.2101 14.2457 14.1887 14.2674C14.1774 14.279 14.153 14.3052 14.1296 14.3456C14.1063 14.3859 14.0724 14.4604 14.0724 14.5603H14.9724ZM14.6774 14.8803C14.6768 14.8373 14.6664 14.7898 14.6433 14.7443C14.6212 14.7008 14.5942 14.6723 14.576 14.6565C14.5488 14.6327 14.5312 14.6295 14.5745 14.6482C14.5805 14.6508 14.6238 14.669 14.6424 14.6772C14.6696 14.6892 14.708 14.7069 14.7482 14.7304C14.8212 14.7732 14.9653 14.8728 15.0261 15.0666L14.1674 15.3361C14.1863 15.3962 14.2179 15.4398 14.2446 15.4674C14.2691 15.4928 14.2896 15.5048 14.2929 15.5068C14.2965 15.5089 14.2943 15.5073 14.2793 15.5007C14.2558 15.4903 14.2551 15.4906 14.2179 15.4745C14.1747 15.4559 14.0734 15.4125 13.9836 15.334C13.8755 15.2395 13.78 15.0906 13.7774 14.8917L14.6774 14.8803ZM15.0261 15.0666C15.0533 15.1532 15.0602 15.2424 15.063 15.3023C15.0662 15.37 15.0655 15.4438 15.0636 15.5157C15.0602 15.6398 15.0491 15.847 15.0445 15.9859C15.039 16.1498 15.0381 16.3035 15.0485 16.4348C15.0596 16.5757 15.0809 16.6454 15.0918 16.6672L14.2868 17.0697C14.1967 16.8894 14.165 16.6789 14.1513 16.5058C14.1368 16.3231 14.1392 16.1291 14.145 15.9558C14.1516 15.7576 14.1599 15.6384 14.1639 15.4913C14.1656 15.4274 14.1656 15.3794 14.164 15.3445C14.162 15.3018 14.1586 15.3079 14.1674 15.3361L15.0261 15.0666ZM15.0918 16.6672C15.1128 16.7092 15.1289 16.7295 15.1371 16.7384C15.1441 16.746 15.1485 16.7488 15.1529 16.7511C15.1695 16.7597 15.2098 16.774 15.3403 16.7861L15.2569 17.6823C15.111 17.6687 14.9189 17.6443 14.7359 17.5487C14.536 17.4441 14.3922 17.2804 14.2868 17.0697L15.0918 16.6672ZM15.3403 16.7861C15.9425 16.8421 16.7016 16.6071 17.357 16.3191C17.675 16.1793 17.9509 16.035 18.1473 15.9257C18.2452 15.8712 18.3227 15.8257 18.3751 15.7943C18.4013 15.7785 18.4211 15.7664 18.4341 15.7583C18.4405 15.7543 18.4453 15.7514 18.4482 15.7495C18.4497 15.7486 18.4507 15.748 18.4512 15.7476C18.4515 15.7474 18.4517 15.7473 18.4517 15.7473C18.4517 15.7473 18.4517 15.7473 18.4517 15.7473C18.4517 15.7473 18.4516 15.7474 18.4516 15.7474C18.4516 15.7474 18.4515 15.7474 18.6933 16.127C18.9351 16.5065 18.935 16.5066 18.9349 16.5066C18.9349 16.5066 18.9348 16.5067 18.9347 16.5067C18.9345 16.5068 18.9343 16.507 18.9341 16.5071C18.9337 16.5074 18.9332 16.5077 18.9325 16.5081C18.9312 16.509 18.9294 16.5101 18.9271 16.5115C18.9226 16.5144 18.9162 16.5184 18.908 16.5234C18.8917 16.5335 18.8683 16.5479 18.8383 16.5659C18.7785 16.6018 18.6924 16.6523 18.585 16.7121C18.3707 16.8314 18.069 16.9892 17.7191 17.143C17.0385 17.4421 16.1003 17.7607 15.2569 17.6823L15.3403 16.7861ZM18.4023 15.7837C18.5716 15.6402 18.668 15.5533 18.7404 15.4587C18.8042 15.3752 18.859 15.2719 18.9033 15.0932L19.7769 15.3095C19.707 15.592 19.6036 15.8115 19.4552 16.0055C19.3153 16.1883 19.1454 16.3337 18.9843 16.4702L18.4023 15.7837ZM19.1432 16.1204C19.1551 16.9385 19.176 17.4334 18.9759 18.1743L18.107 17.9397C18.2691 17.3395 18.2555 16.9697 18.2433 16.1335L19.1432 16.1204ZM18.9602 18.2219C18.8419 18.5222 18.562 19.0011 18.2526 19.5038C17.9361 20.0182 17.5588 20.6046 17.2279 21.1287L16.4669 20.6482C16.8041 20.1141 17.1731 19.5409 17.4861 19.0321C17.8063 18.5117 18.0394 18.1039 18.1228 17.8921L18.9602 18.2219ZM13.753 12.7329C13.7948 12.6462 13.7851 12.5052 13.6659 12.4215L13.1486 13.158C12.8677 12.9607 12.8147 12.6074 12.942 12.3427L13.753 12.7329Z" fill="#010101"/>
</svg>
