<svg width="24" height="24" viewBox="0 0 24 24" fill="none" xmlns="http://www.w3.org/2000/svg">
<path fill-rule="evenodd" clip-rule="evenodd" d="M21.7401 14.74L21.8801 15.43C22.0326 16.0194 21.9082 16.6462 21.5423 17.1328C21.1764 17.6194 20.6087 17.9129 20.0001 17.93H16.1901C16.191 19.5486 14.9078 20.876 13.2901 20.93H5.00011C4.08464 20.9148 3.22623 20.4824 2.66911 19.7558C2.112 19.0293 1.91719 18.088 2.14011 17.2L2.35011 16.2C2.59429 14.8224 3.78124 13.8116 5.18011 13.79H13.1201C13.4745 13.3665 13.9979 13.1212 14.5501 13.12H19.8401C20.7741 13.1498 21.563 13.8224 21.7401 14.74ZM19.9801 16.42C20.1021 16.4155 20.2157 16.3568 20.2901 16.26C20.4209 16.128 20.4868 15.9451 20.4701 15.76L20.3301 15.07C20.303 14.8465 20.1242 14.6718 19.9001 14.65H14.6101C14.495 14.6508 14.3872 14.7065 14.3201 14.8C14.0333 15.1303 13.6175 15.3199 13.1801 15.32H5.2401C4.55552 15.3367 3.98189 15.8428 3.8801 16.52L3.6701 17.52C3.56754 18.0125 3.68837 18.5251 4.0001 18.92C4.2436 19.2271 4.60854 19.4132 5.0001 19.43H13.2601C14.0649 19.3766 14.6834 18.6962 14.6601 17.89C14.6764 17.0733 15.3433 16.4198 16.1601 16.42H19.9801Z" fill="#242136"/>
<path fill-rule="evenodd" clip-rule="evenodd" d="M13.1001 8.00001C13.1001 10.2091 11.3092 12 9.1001 12C6.89096 12 5.1001 10.2091 5.1001 8.00001V6.43001C5.1001 4.57433 6.60442 3.07001 8.4601 3.07001H9.7701C11.614 3.08647 13.1002 4.58598 13.1001 6.43001V8.00001ZM8.4601 4.57001C7.43285 4.57001 6.6001 5.40276 6.6001 6.43001L6.6301 8.00001C6.78969 9.25918 7.86085 10.2031 9.1301 10.2031C10.3993 10.2031 11.4705 9.25918 11.6301 8.00001V6.43001C11.6301 5.40276 10.7973 4.57001 9.7701 4.57001H8.4601Z" fill="#242136"/>
<path fill-rule="evenodd" clip-rule="evenodd" d="M20.6802 8.25002C20.6802 9.90687 19.337 11.25 17.6802 11.25C16.0233 11.25 14.6802 9.90687 14.6802 8.25002V7.10002C14.68 5.72373 15.7841 4.60186 17.1602 4.58002H18.1602C19.5519 4.58002 20.6802 5.70826 20.6802 7.10002V8.25002ZM17.1802 6.10002C16.6279 6.10002 16.1802 6.54773 16.1802 7.10002V8.25002C16.1802 9.07844 16.8517 9.75002 17.6802 9.75002C18.5086 9.75002 19.1802 9.07844 19.1802 8.25002V7.10002C19.1802 6.54773 18.7325 6.10002 18.1802 6.10002H17.1802Z" fill="#242136"/>
</svg>
