<svg width="170" height="26" viewBox="0 0 170 26" fill="none" xmlns="http://www.w3.org/2000/svg">
<path fill-rule="evenodd" clip-rule="evenodd" d="M169.937 18.3546C169.686 17.8967 169.352 17.6717 168.92 17.6717C168.738 17.6717 168.518 17.736 168.336 17.8324C167.471 18.5475 166.545 18.909 165.559 18.909C164.754 18.909 163.988 18.6841 163.244 18.2582C162.994 18.1297 162.69 17.8645 162.319 17.4708C161.484 16.4906 161.082 15.4461 161.082 14.2731C161.082 13.783 161.173 13.2607 161.332 12.7063C161.613 11.7261 162.167 10.9387 162.964 10.3522C163.366 10.087 163.578 9.76565 163.578 9.33981C163.578 9.17912 163.548 9.01039 163.487 8.81756C163.237 8.39173 162.903 8.16676 162.501 8.16676H162.41C162.159 8.16676 161.825 8.3596 161.393 8.75329C161.181 8.88185 160.9 9.17912 160.558 9.57282C160.187 10.0308 159.913 10.4245 159.724 10.778C159.17 11.9189 158.889 13.0679 158.889 14.2731C158.889 15.3176 159.139 16.3299 159.595 17.3423C160.46 19.0697 161.659 20.2508 163.206 20.8373C164.011 21.1025 164.625 21.231 165.027 21.231H166.014C166.295 21.231 166.727 21.1346 167.311 20.9659C167.622 20.8695 167.926 20.7409 168.267 20.5722C168.548 20.4436 168.882 20.2106 169.223 19.9535C169.717 19.6562 169.967 19.2706 169.967 18.7805C170.028 18.6841 169.997 18.5234 169.937 18.3546ZM165.832 6.96157C166.203 6.96157 166.545 7.1544 166.788 7.51596C166.909 7.74092 167 7.97393 167 8.23104C167 8.68901 166.788 9.08271 166.355 9.33981C166.173 9.43623 165.983 9.46837 165.801 9.46837C165.339 9.46837 164.967 9.20323 164.694 8.71312C164.633 8.52029 164.603 8.35155 164.603 8.19086C164.603 7.73289 164.815 7.3392 165.247 7.08209C165.43 6.98568 165.619 6.95354 165.771 6.95354H165.832V6.96157ZM0.0910479 12.526C0.0303476 12.6867 0 12.8554 0 13.0161C0 13.3776 0.121393 13.6669 0.371781 13.932C0.614582 14.1972 0.925691 14.3257 1.26713 14.3257C1.51752 14.3257 1.72995 14.2614 1.91205 14.1329C2.09415 14.0043 2.2535 13.8035 2.34455 13.5785C4.10485 10.3807 6.51011 7.76144 9.5603 5.76886C12.7698 3.64772 16.1311 2.60322 19.6821 2.60322C23.2634 2.60322 26.564 3.5513 29.6445 5.47961C32.6036 7.34364 34.9482 9.85847 36.7085 13.0241C34.9785 16.1897 32.634 18.7046 29.6445 20.5686C26.5867 22.4969 23.2558 23.445 19.6821 23.445C18.0507 23.445 16.4422 23.22 14.8716 22.8263C13.3313 22.4326 11.8821 21.814 10.4935 21.0266C10.2811 20.898 10.0914 20.8338 9.84862 20.8338C9.50719 20.8338 9.23402 20.9623 8.98363 21.2274C8.73325 21.4926 8.61185 21.7818 8.61185 22.1434C8.61185 22.4407 8.70289 22.6978 8.86223 22.8986C9.01398 23.1236 9.23402 23.2923 9.47682 23.3566C11.0171 24.2083 12.656 24.8912 14.348 25.3171C16.1083 25.775 17.899 26 19.7124 26C23.969 26 27.8842 24.7948 31.4351 22.3764C34.8875 20.0544 37.5431 16.9209 39.3641 12.9679C37.5128 9.04697 34.8571 5.91348 31.4351 3.55934C27.8235 1.2052 23.9387 0 19.6517 0C15.5468 0 11.7227 1.10878 8.24005 3.33437C4.84842 5.48765 2.1928 8.39618 0.280738 12.06C0.220037 12.2046 0.121398 12.3653 0.0910479 12.526ZM54.4391 17.0852C54.4391 16.6272 54.2874 16.2014 53.9459 15.8077C53.6349 15.4461 53.2024 15.2854 52.6485 15.2854H49.4086V18.8769H52.6788C53.4831 18.8769 54.037 18.4511 54.3481 17.5994C54.4088 17.4146 54.4391 17.2459 54.4391 17.0852ZM55.2131 14.0481C56.0173 14.8355 56.4195 15.8478 56.4195 17.053C56.4195 18.3305 55.9263 19.4393 54.9096 20.3231C54.5681 20.5883 54.2646 20.7811 53.9535 20.9097C53.4603 21.1025 53.0886 21.2069 52.8457 21.2069H47.7849C47.6028 21.2069 47.4131 21.0784 47.1703 20.8454C46.9578 20.5802 46.8592 20.3231 46.8592 20.0259V13.9838C46.8592 13.558 47.0716 13.1964 47.5041 12.9393C47.6862 12.8429 47.8456 12.8108 47.967 12.8108C48.1491 12.8108 48.2477 12.8108 48.2781 12.8108H52.5347C52.8154 12.8108 53.1189 12.6822 53.4907 12.4492C53.9232 12.0234 54.1356 11.5333 54.1356 10.9789C54.1356 10.553 53.9839 10.1272 53.6728 9.7335C53.3313 9.37194 52.9292 9.17913 52.436 9.17913H47.3751C46.8516 9.17913 46.4798 8.91398 46.2674 8.39173C46.2067 8.26317 46.2067 8.12659 46.2067 7.99804V7.96589C46.2067 7.54006 46.3888 7.21868 46.7606 6.95354C46.9427 6.82498 47.1627 6.7607 47.3751 6.7607H52.4057C53.5438 6.7607 54.5378 7.21867 55.3648 8.16676C56.0401 8.98629 56.3815 9.93437 56.3815 10.9789C56.3815 12.2162 55.9794 13.1964 55.2131 14.0481ZM64.3409 7.02584C64.4926 6.96157 64.6216 6.96157 64.7127 6.96157H64.8037C65.2058 6.96157 65.5473 7.1544 65.8204 7.58023C65.9115 7.77306 65.9418 7.97393 65.9418 8.13463V20.0901C65.9418 20.6124 65.6914 20.9739 65.1982 21.1989C65.0768 21.231 65.0162 21.2632 64.9479 21.2632H64.5154C64.3333 21.2632 64.0829 21.1346 63.8401 20.8695C63.658 20.6445 63.5593 20.3472 63.5593 20.05V8.15873C63.6049 7.64451 63.8477 7.25081 64.3409 7.02584ZM89.5466 7.34724C89.7287 7.25082 89.9184 7.21868 90.1005 7.21868H90.1309C90.533 7.21868 90.8441 7.41151 91.1476 7.8052C91.2387 7.96589 92.5361 9.70136 95.0324 13.0357L95.6167 13.8231C97.4377 11.4368 98.978 9.34785 100.245 7.65254C100.526 7.39543 100.769 7.25885 101.08 7.25885H101.171C101.573 7.25885 101.914 7.48381 102.187 7.87751C102.309 8.07034 102.37 8.30335 102.37 8.49618C102.37 8.85774 102.218 9.25144 101.876 9.60496L96.512 16.82C96.2616 17.0852 95.9885 17.1816 95.647 17.1816C95.2145 17.1816 94.8427 16.9566 94.5696 16.5308L91.3904 12.2805V19.9535C91.3904 20.5722 91.1097 21.0302 90.5558 21.2632C90.4951 21.2953 90.4344 21.2953 90.3737 21.2953H89.9715C89.7894 21.2953 89.5391 21.1668 89.2963 20.9338C89.0535 20.6686 88.9548 20.3472 88.9548 19.9857V8.88184L88.8941 8.55243C88.8941 8.00608 89.1142 7.61238 89.5466 7.34724ZM137.295 8.26318C137.295 7.80521 137.477 7.41151 137.879 7.1544C138.092 7.02585 138.281 6.96157 138.494 6.96157H138.615C139.078 6.96157 139.48 7.25885 139.822 7.84538C140.376 8.72919 140.656 9.70941 140.656 10.7539V10.786C140.656 12.0957 140.254 13.2366 139.419 14.2811C138.987 14.7391 138.706 14.9962 138.555 15.0685C138.304 15.2613 138.061 15.3979 137.811 15.5265C139.412 17.7119 140.307 18.9251 140.467 19.1501C140.588 19.375 140.649 19.6081 140.649 19.8009V19.9616C140.649 20.4195 140.436 20.8132 139.973 21.1346C139.761 21.231 139.602 21.2953 139.511 21.2953H139.048C138.797 21.2632 138.555 21.1346 138.304 20.9016C135.899 17.6315 134.692 15.9684 134.632 15.9041C134.541 15.6791 134.48 15.4461 134.48 15.2211V15.0926C134.48 14.5703 134.73 14.0802 135.193 13.6865C135.504 13.4616 135.777 13.3571 136.058 13.3571C136.309 13.325 136.491 13.2607 136.673 13.1643C137.227 12.8991 137.629 12.4492 137.91 11.8546C138.031 11.4931 138.092 11.2038 138.092 10.9387V10.9066V10.8423V10.7459C138.092 10.2879 137.94 9.79779 137.629 9.33981V9.30767C137.424 8.98629 137.295 8.65688 137.295 8.26318ZM128.63 6.96157C129.002 6.96157 129.305 7.15441 129.556 7.5481C129.647 7.74093 129.707 7.97393 129.707 8.16676C129.707 8.59259 129.525 8.95415 129.093 9.21126C128.911 9.30767 128.751 9.33981 128.6 9.33981H128.509C128.106 9.33981 127.795 9.14698 127.553 8.72114C127.462 8.52831 127.401 8.32746 127.401 8.13463C127.401 7.70879 127.583 7.34723 127.985 7.09012C128.167 6.99371 128.327 6.96157 128.509 6.96157H128.63ZM150.566 7.02584C150.687 6.96157 150.846 6.96157 150.937 6.96157H151.028C151.431 6.96157 151.772 7.1544 152.045 7.58023C152.136 7.77306 152.167 7.97393 152.167 8.13463V20.0901C152.167 20.6124 151.916 20.9739 151.423 21.1989C151.302 21.231 151.241 21.2632 151.173 21.2632H150.74C150.558 21.2632 150.308 21.1346 150.065 20.8695C149.883 20.6445 149.784 20.3472 149.784 20.05V8.15873C149.792 7.64451 150.034 7.25081 150.566 7.02584ZM5.27334 18.6082C5.52373 18.343 5.79687 18.2145 6.13831 18.2145C6.47975 18.2145 6.75291 18.343 7.0033 18.6082C7.25369 18.8733 7.37508 19.1625 7.37508 19.5241C7.37508 19.8857 7.25369 20.1749 7.0033 20.4401C6.75291 20.7052 6.47975 20.8338 6.13831 20.8338C5.79687 20.8338 5.52373 20.7052 5.27334 20.4401C5.02296 20.1749 4.90154 19.8857 4.90154 19.5241C4.90913 19.1625 5.03054 18.8331 5.27334 18.6082ZM23.1344 9.32818C23.3848 9.59333 23.6579 9.72188 23.9994 9.72188C24.3408 9.72188 24.6139 9.59333 24.8643 9.32818C25.1147 9.07108 25.2361 8.7738 25.2361 8.41224C25.2361 8.05068 25.1147 7.7293 24.8643 7.49629C24.6139 7.23115 24.3408 7.10261 23.9994 7.10261C23.6579 7.10261 23.3848 7.23115 23.1344 7.49629C22.884 7.76144 22.7626 8.08282 22.7626 8.41224C22.7702 8.7738 22.8916 9.06304 23.1344 9.32818ZM20.5167 5.56799C20.7671 5.83313 20.8885 6.15452 20.8885 6.48394C20.8885 6.84549 20.7671 7.13474 20.5167 7.39988C20.2663 7.66502 19.9931 7.79358 19.6213 7.79358C18.9764 7.79358 18.3542 7.92213 17.77 8.15514C17.1858 8.42028 16.6319 8.80594 16.169 9.29605C15.213 10.3084 14.7198 11.5538 14.7198 12.9839C14.7198 14.4221 15.213 15.6273 16.169 16.6718C17.1251 17.6842 18.3011 18.2064 19.6517 18.2064C21.0099 18.2064 22.1783 17.6842 23.1344 16.6718C23.6276 16.1817 23.969 15.5952 24.2118 14.9444C24.4622 14.3257 24.5836 13.7071 24.5836 13.0161C24.5836 12.6224 24.705 12.3331 24.9554 12.068C25.2058 11.8028 25.4789 11.6743 25.8204 11.6743C26.1618 11.6743 26.435 11.8028 26.6854 12.068C26.9358 12.3331 27.0571 12.6224 27.0571 12.9839C27.0571 14.0284 26.875 15.0087 26.5336 15.9246C26.1618 16.9048 25.6079 17.7565 24.9023 18.5037C23.4531 20.0383 21.7231 20.7936 19.6897 20.7936C17.6562 20.7936 15.9262 20.0383 14.477 18.5037C13.0278 16.9691 12.3146 15.1372 12.3146 12.9839C12.3146 10.8307 13.0202 8.96663 14.477 7.46416C15.1826 6.71694 15.9869 6.12237 16.9126 5.73671C17.8079 5.34302 18.7336 5.15019 19.6897 5.15019V5.21447C20.0235 5.21447 20.2967 5.34302 20.5167 5.56799ZM107.347 6.96157H113.948H113.979H114.009C114.411 6.96157 114.752 7.18653 114.995 7.61237C115.086 7.77306 115.117 7.97393 115.117 8.16676C115.117 8.62473 114.904 8.98629 114.472 9.24339C114.32 9.30767 114.161 9.33981 114.009 9.33981H107.286C106.975 9.33981 106.702 9.17912 106.452 8.88184C106.3 8.65687 106.201 8.42387 106.201 8.1989V8.10248C106.201 7.74092 106.383 7.41954 106.725 7.1544C106.907 7.02585 107.097 6.96157 107.279 6.96157H107.309H107.347ZM107.317 12.9393H110.739C110.989 12.9393 111.201 13.0679 111.482 13.3009C111.695 13.566 111.793 13.8231 111.793 14.1204C111.793 14.5462 111.611 14.8757 111.239 15.1328C111.057 15.2292 110.868 15.2935 110.716 15.2935H107.264C106.922 15.2935 106.649 15.1328 106.399 14.7391C106.277 14.5462 106.216 14.3454 106.216 14.1525V14.0561C106.216 13.6624 106.399 13.341 106.77 13.0759C106.945 13.0036 107.127 12.9393 107.317 12.9393ZM118.417 8.13463C118.417 7.70879 118.599 7.3874 118.941 7.12225C119.123 6.9937 119.313 6.96157 119.495 6.96157H124.093C124.464 6.96157 124.806 7.1544 125.049 7.58023C125.14 7.77306 125.17 7.97393 125.17 8.13463V20.1223C125.17 20.5481 124.958 20.9097 124.525 21.1668C124.373 21.231 124.275 21.2632 124.214 21.2632H123.842C123.66 21.2632 123.44 21.1346 123.228 20.9338C123.015 20.7088 122.886 20.3794 122.886 19.9857V9.33981H119.464C119.123 9.33981 118.789 9.14699 118.539 8.75329C118.478 8.52832 118.417 8.32746 118.417 8.13463ZM112.833 14.1445C112.833 13.6865 113.045 13.325 113.478 13.0679C113.629 13.0036 113.789 12.9715 113.941 12.9715H114.001C114.434 12.9715 114.775 13.1964 114.988 13.6865C115.048 13.8472 115.079 14.016 115.079 14.1767C115.079 14.6346 114.866 15.0283 114.434 15.2533C114.282 15.3176 114.123 15.3497 114.001 15.3497H113.88C113.538 15.3497 113.235 15.1569 112.954 14.7632C112.901 14.5382 112.833 14.3373 112.833 14.1445ZM114.191 18.9492C114.472 19.0135 114.684 19.142 114.806 19.3429C114.988 19.5679 115.086 19.833 115.086 20.1303C115.086 20.5883 114.874 20.9498 114.441 21.2069C114.29 21.2712 114.191 21.2712 114.161 21.2712H107.097C106.915 21.2712 106.694 21.1427 106.452 20.8775C106.3 20.6124 106.201 20.3874 106.201 20.1624V20.0982C106.201 19.6723 106.383 19.3429 106.786 19.0858C106.907 19.0215 107.097 18.9572 107.339 18.9251H113.941C113.948 18.9171 114.039 18.9171 114.191 18.9492Z" fill="white"/>
<path fill-rule="evenodd" clip-rule="evenodd" d="M78.6892 6.64796C79.0003 6.71223 79.2734 6.87293 79.4631 7.13807C79.6452 7.43535 79.7439 7.72459 79.6756 8.05401C79.6149 8.38343 79.4631 8.64054 79.2127 8.87355C78.9623 9.06638 78.6589 9.17083 78.3478 9.09852C78.0974 9.06638 77.8546 9.03424 77.6042 9.03424C76.3371 9.03424 75.2293 9.52436 74.334 10.4724C73.4386 11.4205 72.9758 12.5614 72.9758 13.9354C72.9758 15.2771 73.4083 16.4502 74.334 17.3983C75.2293 18.3464 76.3067 18.8365 77.6042 18.8365C78.9016 18.8365 79.9791 18.3464 80.8744 17.3983C81.6483 16.5466 82.1112 15.5664 82.2022 14.4576V14.4255C82.2326 14.2648 82.2326 14.096 82.2326 13.9354C82.2326 13.9032 82.2326 13.8711 82.2326 13.8389C82.2022 13.5095 82.2933 13.1881 82.483 12.923C82.6954 12.6578 82.9458 12.4972 83.2872 12.465C83.5983 12.4329 83.8715 12.5293 84.1522 12.7302C84.4026 12.923 84.5544 13.2203 84.5847 13.5497C84.6151 13.6782 84.6151 13.7747 84.6151 13.9113C84.6151 14.1764 84.5847 14.4335 84.5847 14.6986V14.6665C84.433 16.3618 83.7804 17.8643 82.5816 19.1418C81.2234 20.58 79.5921 21.2951 77.6421 21.2951C75.6921 21.2951 74.0608 20.58 72.7102 19.1418C71.352 17.7036 70.6768 15.944 70.6768 13.9113C70.6768 11.8865 71.352 10.151 72.7102 8.72089C74.0684 7.28269 75.6997 6.56762 77.6421 6.56762C77.9456 6.54351 78.3174 6.58368 78.6892 6.64796Z" fill="#F8DC3E"/>
<path fill-rule="evenodd" clip-rule="evenodd" d="M80.9609 9.43833C80.9609 8.90119 81.2101 8.47713 81.7174 8.17558C81.8954 8.10019 82.0823 8.0625 82.2602 8.0625H82.3314C82.8387 8.0625 83.2036 8.32636 83.4883 8.9012C83.5595 9.08967 83.5951 9.28756 83.5951 9.47603C83.5951 10.0132 83.3459 10.4749 82.8387 10.7388C82.6607 10.8142 82.4738 10.8519 82.3314 10.8519H82.189C81.7886 10.8519 81.4326 10.6257 81.1033 10.1639C81.0321 9.90009 80.9609 9.66449 80.9609 9.43833Z" fill="#F8DC3E"/>
</svg>
