<svg width="130" height="20" viewBox="0 0 130 20" fill="none" xmlns="http://www.w3.org/2000/svg">
<path fill-rule="evenodd" clip-rule="evenodd" d="M129.951 14.119C129.76 13.7667 129.505 13.5936 129.174 13.5936C129.035 13.5936 128.866 13.6431 128.727 13.7172C128.066 14.2673 127.358 14.5454 126.604 14.5454C125.989 14.5454 125.403 14.3724 124.834 14.0448C124.642 13.9459 124.41 13.7419 124.126 13.4391C123.488 12.6851 123.18 11.8816 123.18 10.9793C123.18 10.6023 123.25 10.2005 123.372 9.77409C123.586 9.02007 124.01 8.41438 124.619 7.96321C124.927 7.75925 125.089 7.51204 125.089 7.18447C125.089 7.06086 125.066 6.93107 125.02 6.78274C124.828 6.45517 124.573 6.28212 124.265 6.28212H124.196C124.004 6.28212 123.749 6.43046 123.418 6.7333C123.256 6.83219 123.041 7.06086 122.78 7.3637C122.496 7.71599 122.287 8.01883 122.142 8.29077C121.718 9.1684 121.503 10.0522 121.503 10.9793C121.503 11.7827 121.695 12.5615 122.043 13.3402C122.704 14.669 123.621 15.5775 124.805 16.0287C125.42 16.2327 125.89 16.3316 126.197 16.3316H126.952C127.166 16.3316 127.497 16.2574 127.944 16.1276C128.182 16.0534 128.414 15.9546 128.675 15.8248C128.89 15.7259 129.145 15.5466 129.406 15.3489C129.783 15.1202 129.975 14.8235 129.975 14.4465C130.021 14.3724 129.998 14.2487 129.951 14.119ZM126.812 5.35505C127.097 5.35505 127.358 5.50338 127.544 5.7815C127.636 5.95456 127.706 6.13379 127.706 6.33157C127.706 6.68385 127.544 6.9867 127.213 7.18447C127.074 7.25864 126.929 7.28336 126.789 7.28336C126.435 7.28336 126.151 7.07941 125.942 6.7024C125.896 6.55407 125.873 6.42427 125.873 6.30066C125.873 5.94837 126.035 5.64554 126.366 5.44776C126.505 5.3736 126.65 5.34887 126.766 5.34887H126.812V5.35505ZM0.0696248 9.63536C0.023207 9.75897 0 9.88876 0 10.0124C0 10.2905 0.0928297 10.513 0.284303 10.7169C0.469975 10.9209 0.707882 11.0198 0.968982 11.0198C1.16046 11.0198 1.3229 10.9703 1.46216 10.8715C1.60141 10.7726 1.72326 10.6181 1.79289 10.445C3.13901 7.98517 4.97832 5.97034 7.31082 4.43758C9.76516 2.80594 12.3355 2.00248 15.051 2.00248C17.7896 2.00248 20.3136 2.73177 22.6693 4.21508C24.9322 5.64895 26.7251 7.58344 28.0712 10.0185C26.7483 12.4536 24.9554 14.3881 22.6693 15.822C20.331 17.3053 17.7838 18.0346 15.051 18.0346C13.8035 18.0346 12.5734 17.8616 11.3724 17.5587C10.1945 17.2559 9.08629 16.78 8.02448 16.1743C7.86202 16.0754 7.71697 16.026 7.5313 16.026C7.2702 16.026 7.06131 16.1248 6.86984 16.3288C6.67836 16.5328 6.58553 16.7553 6.58553 17.0334C6.58553 17.2621 6.65515 17.4598 6.777 17.6143C6.89305 17.7874 7.06131 17.9172 7.24698 17.9666C8.42483 18.6218 9.67812 19.1471 10.972 19.4747C12.3181 19.827 13.6875 20 15.0742 20C18.3293 20 21.3232 19.0729 24.0386 17.2126C26.6786 15.4265 28.7094 13.0161 30.102 9.97528C28.6862 6.95921 26.6554 4.54883 24.0386 2.73795C21.2768 0.927075 18.306 0 15.0278 0C11.8888 0 8.96444 0.852911 6.30122 2.5649C3.70762 4.22127 1.67684 6.4586 0.214682 9.27689C0.168264 9.38814 0.0928338 9.51175 0.0696248 9.63536ZM41.6299 13.1424C41.6299 12.7902 41.5139 12.4626 41.2528 12.1598C41.0149 11.8816 40.6842 11.758 40.2606 11.758H37.783V14.5207H40.2838C40.8988 14.5207 41.3224 14.1931 41.5603 13.538C41.6067 13.3958 41.6299 13.2661 41.6299 13.1424ZM42.2217 10.8062C42.8368 11.4119 43.1443 12.1906 43.1443 13.1177C43.1443 14.1004 42.7672 14.9533 41.9897 15.6332C41.7286 15.8371 41.4965 15.9855 41.2586 16.0843C40.8814 16.2327 40.5971 16.313 40.4115 16.313H36.5414C36.4021 16.313 36.2571 16.2141 36.0714 16.0349C35.9089 15.8309 35.8335 15.6332 35.8335 15.4045V10.7568C35.8335 10.4292 35.9959 10.1511 36.3267 9.95332C36.4659 9.87916 36.5878 9.85443 36.6806 9.85443C36.8199 9.85443 36.8953 9.85443 36.9185 9.85443H40.1736C40.3882 9.85443 40.6203 9.75555 40.9046 9.57631C41.2354 9.24875 41.3978 8.87174 41.3978 8.44528C41.3978 8.11772 41.2818 7.79015 41.0439 7.48731C40.7828 7.20919 40.4753 7.06087 40.0981 7.06087H36.2281C35.8277 7.06087 35.5434 6.8569 35.3809 6.45517C35.3345 6.35629 35.3345 6.25122 35.3345 6.15234V6.12761C35.3345 5.80005 35.4738 5.55283 35.7581 5.34887C35.8973 5.24999 36.0656 5.20054 36.2281 5.20054H40.0749C40.9453 5.20054 41.7054 5.55283 42.3378 6.28212C42.8542 6.91253 43.1153 7.64182 43.1153 8.44528C43.1153 9.39708 42.8078 10.1511 42.2217 10.8062ZM49.2018 5.4045C49.3179 5.35505 49.4165 5.35505 49.4861 5.35505H49.5558C49.8633 5.35505 50.1244 5.50338 50.3333 5.83095C50.4029 5.97928 50.4261 6.13379 50.4261 6.2574V15.4539C50.4261 15.8557 50.2346 16.1338 49.8575 16.3068C49.7646 16.3316 49.7182 16.3563 49.666 16.3563H49.3353C49.196 16.3563 49.0046 16.2574 48.8189 16.0534C48.6796 15.8804 48.6042 15.6517 48.6042 15.423V6.27594C48.639 5.88039 48.8247 5.57755 49.2018 5.4045ZM68.4768 5.65172C68.6161 5.57755 68.7612 5.55283 68.9004 5.55283H68.9236C69.2311 5.55283 69.469 5.70116 69.7011 6.004C69.7708 6.12761 70.7629 7.46259 72.6719 10.0275L73.1186 10.6332C74.5112 8.79758 75.689 7.19065 76.658 5.88657C76.8727 5.6888 77.0583 5.58373 77.2962 5.58373H77.3659C77.6734 5.58373 77.9345 5.75678 78.1434 6.05962C78.2362 6.20795 78.2826 6.38719 78.2826 6.53552C78.2826 6.81364 78.1666 7.11649 77.9055 7.38843L73.8033 12.9385C73.6118 13.1424 73.4029 13.2166 73.1418 13.2166C72.8111 13.2166 72.5268 13.0436 72.3179 12.716L69.8868 9.44653V15.3489C69.8868 15.8248 69.6721 16.1771 69.2486 16.3563C69.2021 16.381 69.1557 16.381 69.1093 16.381H68.8018C68.6625 16.381 68.471 16.2821 68.2854 16.1029C68.0997 15.8989 68.0243 15.6517 68.0243 15.3736V6.83218L67.9779 6.57879C67.9779 6.15852 68.1461 5.85568 68.4768 5.65172ZM104.99 6.35629C104.99 6.00401 105.13 5.70116 105.437 5.50338C105.6 5.4045 105.745 5.35505 105.907 5.35505H106C106.354 5.35505 106.661 5.58373 106.922 6.03491C107.346 6.71476 107.561 7.46877 107.561 8.27223V8.29696C107.561 9.30438 107.253 10.182 106.615 10.9855C106.284 11.3377 106.069 11.5355 105.953 11.5911C105.762 11.7395 105.576 11.8445 105.385 11.9434C106.609 13.6245 107.294 14.5578 107.416 14.7308C107.508 14.9039 107.555 15.0831 107.555 15.2314V15.3551C107.555 15.7073 107.392 16.0102 107.038 16.2574C106.876 16.3316 106.754 16.381 106.685 16.381H106.331C106.139 16.3563 105.953 16.2574 105.762 16.0782C103.923 13.5627 103 12.2834 102.954 12.2339C102.884 12.0609 102.838 11.8816 102.838 11.7086V11.6097C102.838 11.208 103.029 10.831 103.383 10.5281C103.621 10.3551 103.83 10.2747 104.045 10.2747C104.236 10.25 104.375 10.2005 104.515 10.1264C104.938 9.92242 105.246 9.57631 105.46 9.11896C105.553 8.84083 105.6 8.61833 105.6 8.41438V8.38966V8.34022V8.26606C105.6 7.91377 105.483 7.53676 105.246 7.18447V7.15975C105.089 6.91253 104.99 6.65914 104.99 6.35629ZM98.3641 5.35505C98.6485 5.35505 98.8805 5.50339 99.072 5.80623C99.1416 5.95456 99.1881 6.13379 99.1881 6.28212C99.1881 6.60969 99.0488 6.88781 98.7181 7.08558C98.5788 7.15975 98.457 7.18447 98.3409 7.18447H98.2713C97.9638 7.18447 97.7259 7.03614 97.5402 6.70857C97.4706 6.56024 97.4242 6.40574 97.4242 6.2574C97.4242 5.92984 97.5634 5.65171 97.8709 5.45394C98.0102 5.37977 98.132 5.35505 98.2713 5.35505H98.3641ZM115.138 5.4045C115.231 5.35505 115.353 5.35505 115.423 5.35505H115.492C115.8 5.35505 116.061 5.50338 116.27 5.83095C116.339 5.97928 116.363 6.13379 116.363 6.2574V15.4539C116.363 15.8557 116.171 16.1338 115.794 16.3068C115.701 16.3316 115.655 16.3563 115.603 16.3563H115.272C115.133 16.3563 114.941 16.2574 114.755 16.0534C114.616 15.8804 114.541 15.6517 114.541 15.423V6.27594C114.547 5.88039 114.732 5.57755 115.138 5.4045ZM4.03256 14.314C4.22403 14.11 4.4329 14.0111 4.694 14.0111C4.9551 14.0111 5.16399 14.11 5.35546 14.314C5.54694 14.5179 5.63977 14.7404 5.63977 15.0185C5.63977 15.2967 5.54694 15.5192 5.35546 15.7231C5.16399 15.9271 4.9551 16.026 4.694 16.026C4.4329 16.026 4.22403 15.9271 4.03256 15.7231C3.84108 15.5192 3.74824 15.2967 3.74824 15.0185C3.75404 14.7404 3.84689 14.487 4.03256 14.314ZM17.691 7.17553C17.8825 7.37948 18.0914 7.47837 18.3525 7.47837C18.6136 7.47837 18.8224 7.37948 19.0139 7.17553C19.2054 6.97775 19.2982 6.74907 19.2982 6.47095C19.2982 6.19283 19.2054 5.94561 19.0139 5.76638C18.8224 5.56242 18.6136 5.46354 18.3525 5.46354C18.0914 5.46354 17.8825 5.56242 17.691 5.76638C17.4995 5.97033 17.4067 6.21755 17.4067 6.47095C17.4125 6.74907 17.5053 6.97157 17.691 7.17553ZM15.6892 4.28307C15.8807 4.48703 15.9735 4.73424 15.9735 4.98764C15.9735 5.26576 15.8807 5.48826 15.6892 5.69222C15.4978 5.89617 15.2889 5.99506 15.0046 5.99506C14.5114 5.99506 14.0356 6.09395 13.5888 6.27318C13.1421 6.47714 12.7185 6.7738 12.3646 7.15081C11.6335 7.92955 11.2563 8.88752 11.2563 9.98764C11.2563 11.0939 11.6335 12.021 12.3646 12.8245C13.0956 13.6032 13.995 14.0049 15.0278 14.0049C16.0664 14.0049 16.9599 13.6032 17.691 12.8245C18.0681 12.4475 18.3292 11.9963 18.5149 11.4957C18.7064 11.0198 18.7992 10.5439 18.7992 10.0124C18.7992 9.70953 18.8921 9.48702 19.0835 9.28307C19.275 9.07911 19.4839 8.98022 19.745 8.98022C20.0061 8.98022 20.215 9.07911 20.4065 9.28307C20.5979 9.48702 20.6908 9.70952 20.6908 9.98764C20.6908 10.7911 20.5515 11.5451 20.2904 12.2497C20.0061 13.0037 19.5825 13.6588 19.0429 14.2336C17.9347 15.4141 16.6118 15.9951 15.0568 15.9951C13.5018 15.9951 12.1789 15.4141 11.0706 14.2336C9.96242 13.0532 9.41703 11.644 9.41703 9.98764C9.41703 8.33127 9.95662 6.89741 11.0706 5.74166C11.6103 5.16688 12.2253 4.70952 12.9332 4.41285C13.6178 4.11001 14.3257 3.96168 15.0568 3.96168V4.01113C15.3121 4.01113 15.521 4.11002 15.6892 4.28307ZM82.0889 5.35505H87.1368H87.16H87.1833C87.4908 5.35505 87.7519 5.5281 87.9375 5.85567C88.0072 5.97928 88.0304 6.13379 88.0304 6.28212C88.0304 6.63441 87.8679 6.91253 87.5372 7.1103C87.4211 7.15975 87.2993 7.18447 87.1833 7.18447H82.0425C81.8046 7.18447 81.5957 7.06086 81.4042 6.83218C81.2882 6.65913 81.2128 6.4799 81.2128 6.30685V6.23268C81.2128 5.95456 81.352 5.70734 81.6131 5.50338C81.7523 5.4045 81.8974 5.35505 82.0367 5.35505H82.0599H82.0889ZM82.0657 9.95332H84.6825C84.874 9.95332 85.0364 10.0522 85.2511 10.2314C85.4136 10.4354 85.489 10.6332 85.489 10.8619C85.489 11.1894 85.3497 11.4428 85.0654 11.6406C84.9262 11.7148 84.7811 11.7642 84.6651 11.7642H82.0251C81.764 11.7642 81.5551 11.6406 81.3636 11.3377C81.2708 11.1894 81.2243 11.0349 81.2243 10.8866V10.8124C81.2243 10.5096 81.3636 10.2623 81.6479 10.0584C81.7814 10.0028 81.9206 9.95332 82.0657 9.95332ZM90.5543 6.2574C90.5543 5.92984 90.6936 5.68261 90.9547 5.47866C91.0939 5.37977 91.239 5.35505 91.3783 5.35505H94.8944C95.1787 5.35505 95.4398 5.50338 95.6255 5.83095C95.6951 5.97928 95.7183 6.13379 95.7183 6.2574V15.4787C95.7183 15.8062 95.5559 16.0844 95.2251 16.2821C95.1091 16.3316 95.0337 16.3563 94.9872 16.3563H94.7029C94.5637 16.3563 94.3954 16.2574 94.233 16.1029C94.0705 15.9298 93.9718 15.6764 93.9718 15.3736V7.18447H91.355C91.0939 7.18447 90.8386 7.03614 90.6472 6.7333C90.6008 6.56025 90.5543 6.40574 90.5543 6.2574ZM86.2839 10.8804C86.2839 10.5281 86.4464 10.25 86.7771 10.0522C86.8931 10.0028 87.015 9.97805 87.131 9.97805H87.1774C87.5082 9.97805 87.7693 10.1511 87.9317 10.5281C87.9781 10.6517 88.0014 10.7815 88.0014 10.9051C88.0014 11.2574 87.8389 11.5602 87.5082 11.7333C87.3921 11.7827 87.2703 11.8075 87.1774 11.8075H87.0846C86.8235 11.8075 86.5914 11.6591 86.3767 11.3563C86.3361 11.1832 86.2839 11.0287 86.2839 10.8804ZM87.3225 14.5763C87.5372 14.6258 87.6996 14.7246 87.7925 14.8792C87.9317 15.0522 88.0072 15.2562 88.0072 15.4848C88.0072 15.8371 87.8447 16.1153 87.514 16.313C87.3979 16.3625 87.3225 16.3625 87.2993 16.3625H81.8974C81.7582 16.3625 81.5899 16.2636 81.4042 16.0596C81.2882 15.8557 81.2128 15.6826 81.2128 15.5096V15.4601C81.2128 15.1326 81.352 14.8792 81.6595 14.6814C81.7524 14.6319 81.8974 14.5825 82.0831 14.5578H87.131C87.1368 14.5516 87.2065 14.5516 87.3225 14.5763Z" fill="#242136"/>
<path fill-rule="evenodd" clip-rule="evenodd" d="M60.174 5.11387C60.4119 5.16331 60.6208 5.28692 60.7659 5.49088C60.9051 5.71956 60.9806 5.94205 60.9283 6.19545C60.8819 6.44885 60.7659 6.64663 60.5744 6.82586C60.3829 6.97419 60.1508 7.05454 59.9129 6.99891C59.7215 6.97419 59.5358 6.94947 59.3443 6.94947C58.3753 6.94947 57.5282 7.32648 56.8436 8.05578C56.1589 8.78507 55.805 9.6627 55.805 10.7196C55.805 11.7517 56.1357 12.654 56.8436 13.3833C57.5282 14.1126 58.3521 14.4896 59.3443 14.4896C60.3365 14.4896 61.1604 14.1126 61.8451 13.3833C62.4369 12.7282 62.7908 11.9742 62.8605 11.1213V11.0966C62.8837 10.973 62.8837 10.8432 62.8837 10.7196C62.8837 10.6948 62.8837 10.6701 62.8837 10.6454C62.8605 10.392 62.9301 10.1448 63.0751 9.94082C63.2376 9.73686 63.4291 9.61326 63.6902 9.58853C63.9281 9.56381 64.137 9.63798 64.3516 9.79249C64.5431 9.94082 64.6592 10.1695 64.6824 10.4229C64.7056 10.5218 64.7056 10.596 64.7056 10.701C64.7056 10.905 64.6824 11.1027 64.6824 11.3067V11.282C64.5663 12.5861 64.0673 13.7418 63.1506 14.7245C62.112 15.8308 60.8645 16.3809 59.3733 16.3809C57.8821 16.3809 56.6347 15.8308 55.6019 14.7245C54.5633 13.6182 54.0469 12.2647 54.0469 10.701C54.0469 9.14354 54.5633 7.80856 55.6019 6.70843C56.6405 5.60213 57.8879 5.05207 59.3733 5.05207C59.6054 5.03353 59.8897 5.06443 60.174 5.11387Z" fill="#F8DC3E"/>
</svg>
