<svg width="24" height="24" viewBox="0 0 24 24" fill="none" xmlns="http://www.w3.org/2000/svg">
    <path fill-rule="evenodd" clip-rule="evenodd" d="M17.1333 2H6.86667C5.83574 2 5 2.89543 5 4V20C5 21.1046 5.83574 22 6.86667 22H17.1333C18.1643 22 19 21.1046 19 20V4C19 3.46957 18.8033 2.96086 18.4533 2.58579C18.1032 2.21071 17.6284 2 17.1333 2ZM17.4693 19.9999C17.4693 20.1987 17.3189 20.3599 17.1333 20.3599H6.86668C6.68111 20.3599 6.53068 20.1987 6.53068 19.9999V3.99989C6.53068 3.90441 6.56608 3.81285 6.62909 3.74533C6.6921 3.67782 6.77757 3.63989 6.86668 3.63989H17.1333C17.3189 3.63989 17.4693 3.80107 17.4693 3.99989V19.9999ZM12 19C12.5523 19 13 18.5523 13 18C13 17.4477 12.5523 17 12 17C11.4477 17 11 17.4477 11 18C11 18.5523 11.4477 19 12 19Z" fill="#242136"/>
</svg>