<svg width="14" height="14" viewBox="0 0 14 14" fill="none" xmlns="http://www.w3.org/2000/svg">
    <path d="M6.56667 13.4415C6.40248 13.4418 6.24441 13.3792 6.125 13.2665L0.29167 7.43314C0.0479589 7.18913 0.0479589 6.79382 0.29167 6.54981L6.125 0.716475C6.36902 0.472764 6.76432 0.472764 7.00834 0.716475C7.12746 0.832548 7.19464 0.991819 7.19464 1.15814C7.19464 1.32446 7.12746 1.48373 7.00834 1.59981L1.625 6.99981L7 12.3748C7.11913 12.4909 7.18631 12.6502 7.18631 12.8165C7.18631 12.9828 7.11913 13.1421 7 13.2581C6.88711 13.3765 6.73025 13.4429 6.56667 13.4415Z" fill="#242136" fill-opacity="0.4"/>
    <path d="M13.2666 7.625H0.766602C0.421424 7.625 0.141602 7.34518 0.141602 7C0.141602 6.65482 0.421424 6.375 0.766602 6.375H13.2666C13.6118 6.375 13.8916 6.65482 13.8916 7C13.8916 7.34518 13.6118 7.625 13.2666 7.625Z" fill="#242136" fill-opacity="0.4"/>
    <path d="M6.56667 13.4415C6.40248 13.4418 6.24441 13.3792 6.125 13.2665L0.29167 7.43314C0.0479589 7.18913 0.0479589 6.79382 0.29167 6.54981L6.125 0.716475C6.36902 0.472764 6.76432 0.472764 7.00834 0.716475C7.12746 0.832548 7.19464 0.991819 7.19464 1.15814C7.19464 1.32446 7.12746 1.48373 7.00834 1.59981L1.625 6.99981L7 12.3748C7.11913 12.4909 7.18631 12.6502 7.18631 12.8165C7.18631 12.9828 7.11913 13.1421 7 13.2581C6.88711 13.3765 6.73025 13.4429 6.56667 13.4415Z" fill="#242136" fill-opacity="0.4"/>
    <path d="M13.2666 7.625H0.766602C0.421424 7.625 0.141602 7.34518 0.141602 7C0.141602 6.65482 0.421424 6.375 0.766602 6.375H13.2666C13.6118 6.375 13.8916 6.65482 13.8916 7C13.8916 7.34518 13.6118 7.625 13.2666 7.625Z" fill="#242136" fill-opacity="0.4"/>
</svg>
