<svg width="14" height="14" viewBox="0 0 14 14" fill="none" xmlns="http://www.w3.org/2000/svg">
    <path d="M13.7084 6.55833L7.87507 0.724997C7.7143 0.568693 7.48235 0.510032 7.2666 0.57111C7.05086 0.632189 6.88408 0.803728 6.8291 1.02111C6.77413 1.23849 6.8393 1.46869 7.00007 1.625L11.7584 6.375H0.733398C0.38822 6.375 0.108398 6.65482 0.108398 7C0.108398 7.34517 0.38822 7.625 0.733398 7.625H11.7501L7.00007 12.375C6.88094 12.4911 6.81376 12.6503 6.81376 12.8167C6.81376 12.983 6.88094 13.1423 7.00007 13.2583C7.11493 13.3789 7.27527 13.4454 7.44173 13.4417C7.60762 13.4424 7.76683 13.3764 7.8834 13.2583L13.7167 7.425C13.9604 7.18098 13.9604 6.78568 13.7167 6.54166L13.7084 6.55833Z" fill="#242136" fill-opacity="0.4"/>
</svg>
