<svg width="24" height="24" viewBox="0 0 24 24" fill="none" xmlns="http://www.w3.org/2000/svg">
<path d="M18.9999 3.63H4.99994C3.41769 3.71094 2.19324 5.04671 2.24994 6.63V13.54C2.19866 15.1213 3.42016 16.4538 4.99994 16.54H6.99994C7.41415 16.54 7.74994 16.2042 7.74994 15.79C7.74994 15.3758 7.41415 15.04 6.99994 15.04H4.99994C4.23291 14.946 3.67935 14.2596 3.74994 13.49V6.67C3.67965 5.90251 4.2344 5.21906 4.99994 5.13H18.9999C19.7655 5.21906 20.3202 5.90251 20.2499 6.67V13.58C20.3205 14.3496 19.767 15.036 18.9999 15.13H16.9999C16.5857 15.13 16.2499 15.4658 16.2499 15.88C16.2499 16.2942 16.5857 16.63 16.9999 16.63H18.9999C20.5797 16.5438 21.8012 15.2113 21.7499 13.63V6.67C21.8066 5.08671 20.5822 3.75094 18.9999 3.67V3.63Z" fill="#242136"/>
<path fill-rule="evenodd" clip-rule="evenodd" d="M10.8399 15.75C11.1476 15.4425 11.5649 15.2698 11.9999 15.27V15.3C12.4349 15.2998 12.8522 15.4725 13.1599 15.78L15.4699 18.09C15.9424 18.5564 16.0849 19.2628 15.83 19.8759C15.5751 20.4889 14.9738 20.8861 14.3099 20.88H9.68992C9.02602 20.8861 8.42477 20.4889 8.16988 19.8759C7.91499 19.2628 8.0574 18.5564 8.52992 18.09L10.8399 15.75ZM14.1499 19.15L11.9999 17L9.84992 19.15H14.1499Z" fill="#242136"/>
</svg>
