<svg width="23" height="18" viewBox="0 0 23 18" fill="none" xmlns="http://www.w3.org/2000/svg">
<mask id="path-1-inside-1_701_1230" fill="white">
<path fill-rule="evenodd" clip-rule="evenodd" d="M22.5456 17.0151C22.5781 17.1656 22.4355 17.2949 22.2889 17.2478L18.8257 16.1362C18.6791 16.0891 18.6384 15.901 18.7525 15.7976L19.6402 14.9925C19.2114 14.7581 18.9334 14.4154 18.7371 14.0711C18.5664 13.7717 18.4365 13.429 18.3285 13.1441C18.3101 13.0956 18.2924 13.0489 18.2752 13.0042C18.0181 12.337 17.7865 11.8837 17.2206 11.6176C16.9648 11.4973 16.6266 11.5058 16.0876 11.7491C15.584 11.9764 15.0478 12.3418 14.4276 12.7645L14.4275 12.7645L14.2647 12.8754C13.6097 13.3209 12.8631 13.8172 12.0941 14.109C11.3058 14.4082 10.41 14.5243 9.51164 14.1019C8.59705 13.6719 8.11787 12.8574 7.85322 12.0227C7.59183 11.1983 7.50602 10.25 7.44786 9.39868C7.43682 9.23709 7.42677 9.0795 7.41698 8.92607V8.92606C7.37265 8.23136 7.33375 7.6219 7.23371 7.11191C7.10484 6.45498 6.92809 6.27311 6.82467 6.22448C6.46013 6.05306 6.20084 6.01446 5.99759 6.01807C5.77823 6.02196 5.57999 6.07365 5.28861 6.15589L5.25775 6.16461L5.25774 6.16462C4.98765 6.24101 4.62798 6.34274 4.2113 6.35312C3.76014 6.36435 3.27972 6.2705 2.73537 6.01454C1.55463 5.45933 0.947478 4.25747 0.635496 3.36081C0.472599 2.89263 0.372769 2.45732 0.313451 2.14009C0.283641 1.98067 0.263679 1.849 0.250985 1.75534C0.244632 1.70846 0.240079 1.67095 0.237013 1.64408L0.233482 1.61187L0.232475 1.60202L0.232149 1.5987L0.232028 1.59746L0.231978 1.59694C0.231956 1.59671 0.231935 1.59649 0.940773 1.52909L0.231935 1.59648C0.192728 1.18413 0.495223 0.818068 0.907577 0.77886C1.3198 0.739664 1.68577 1.04196 1.72516 1.45412L1.7252 1.4545L1.72538 1.45619L1.72733 1.47395C1.72928 1.49096 1.73253 1.51801 1.7374 1.5539C1.74714 1.62578 1.76323 1.73248 1.78789 1.86438C1.83753 2.1298 1.92033 2.48892 2.05219 2.86789C2.32972 3.66552 2.76054 4.36882 3.37365 4.65711C3.72623 4.8229 3.97644 4.8585 4.17397 4.85358C4.38988 4.8482 4.58535 4.79578 4.88117 4.71229L4.89816 4.70749C5.12046 4.64471 5.4019 4.56522 5.72777 4.53272C5.80633 4.52489 5.88747 4.51978 5.97098 4.5183C6.42592 4.51023 6.91155 4.60778 7.46296 4.86706C8.27549 5.24913 8.56654 6.11397 8.70566 6.82317C8.82645 7.43894 8.87271 8.1721 8.91667 8.8689C8.92579 9.01344 8.93481 9.15641 8.94438 9.29645C9.00293 10.1535 9.08235 10.9364 9.28307 11.5694C9.48052 12.1921 9.76033 12.5613 10.1499 12.7445C10.5558 12.9353 11.0022 12.919 11.562 12.7066C12.1411 12.4868 12.7485 12.0925 13.4212 11.635L13.6021 11.5117C14.1925 11.1085 14.8397 10.6666 15.4705 10.3819C16.1744 10.0642 17.0208 9.86609 17.8589 10.2602C18.9975 10.7956 19.4045 11.7633 19.6749 12.4649C19.6975 12.5236 19.7189 12.5796 19.7392 12.633C19.8498 12.9229 19.9323 13.1389 20.0401 13.3281C20.1539 13.5275 20.2625 13.632 20.396 13.6947C20.5423 13.7635 20.656 13.8735 20.7298 14.0044L21.4468 13.3541C21.5609 13.2507 21.7441 13.3095 21.7767 13.46L22.5456 17.0151Z"/>
</mask>
<path d="M2.03 1.05779L6.0326 4.1364L5.42293 4.92905L1.42033 1.85044L2.03 1.05779ZM22.2889 17.2478L21.9833 18.2V18.2L22.2889 17.2478ZM22.5456 17.0151L23.523 16.8037V16.8037L22.5456 17.0151ZM18.8257 16.1362L19.1313 15.184L18.8257 16.1362ZM18.7525 15.7976L19.4242 16.5383L19.4242 16.5383L18.7525 15.7976ZM19.6402 14.9925L20.1199 14.1151L21.353 14.7892L20.312 15.7333L19.6402 14.9925ZM18.7371 14.0711L19.6058 13.5757L19.6058 13.5757L18.7371 14.0711ZM18.3285 13.1441L19.2636 12.7896L19.2636 12.7897L18.3285 13.1441ZM18.2752 13.0042L17.3421 13.3638L17.3421 13.3638L18.2752 13.0042ZM17.2206 11.6176L16.7951 12.5226V12.5226L17.2206 11.6176ZM16.0876 11.7491L15.6762 10.8377L15.6762 10.8377L16.0876 11.7491ZM14.4276 12.7645L13.8463 11.9507L13.8553 11.9443L13.8644 11.9381L14.4276 12.7645ZM14.4275 12.7645L15.0088 13.5782L14.9997 13.5847L14.9904 13.591L14.4275 12.7645ZM14.2647 12.8754L14.8276 13.7019L14.8271 13.7022L14.2647 12.8754ZM12.0941 14.109L11.7394 13.174L12.0941 14.109ZM9.51164 14.1019L9.93716 13.197V13.197L9.51164 14.1019ZM7.85322 12.0227L8.80645 11.7205V11.7205L7.85322 12.0227ZM7.44786 9.39868L8.44554 9.33053V9.33053L7.44786 9.39868ZM7.41698 8.92607L6.41901 8.98975L6.41698 8.95794V8.92607H7.41698ZM7.41698 8.92606L8.41495 8.86237L8.41698 8.89418V8.92606H7.41698ZM7.23371 7.11191L6.25241 7.30441V7.30441L7.23371 7.11191ZM6.82467 6.22448L7.25019 5.31953L7.2502 5.31953L6.82467 6.22448ZM5.99759 6.01807L6.01533 7.01791H6.01532L5.99759 6.01807ZM5.28861 6.15589L5.01662 5.19359L5.01698 5.19349L5.28861 6.15589ZM5.25775 6.16461L4.94152 5.21593L4.96348 5.20861L4.98575 5.20232L5.25775 6.16461ZM5.25774 6.16462L5.57397 7.1133L5.55209 7.12059L5.52991 7.12687L5.25774 6.16462ZM4.2113 6.35312L4.23619 7.35281L4.2113 6.35312ZM2.73537 6.01454L3.16089 5.10959L2.73537 6.01454ZM0.635496 3.36081L1.57996 3.03219L1.57996 3.03219L0.635496 3.36081ZM0.313451 2.14009L1.29641 1.95629L1.29641 1.95629L0.313451 2.14009ZM0.250985 1.75534L1.24193 1.62104L1.24193 1.62105L0.250985 1.75534ZM0.237013 1.64408L-0.756545 1.7575L-0.757033 1.75305L0.237013 1.64408ZM0.233482 1.61187L-0.76059 1.72084L-0.761338 1.71353L0.233482 1.61187ZM0.232475 1.60202L-0.762351 1.70367L-0.762709 1.70004L0.232475 1.60202ZM0.232149 1.5987L-0.763036 1.69673L-0.763183 1.69522L0.232149 1.5987ZM0.232028 1.59746L-0.763304 1.69397L-0.763394 1.69304L0.232028 1.59746ZM0.231978 1.59694L-0.763444 1.69251L-0.763519 1.69173L0.231978 1.59694ZM0.940773 1.52909L0.846118 0.533575L1.03544 2.5246L0.940773 1.52909ZM0.231935 1.59648L0.326589 2.59199L-0.668921 2.68665L-0.763575 1.69114L0.231935 1.59648ZM0.907577 0.77886L1.00223 1.77437H1.00223L0.907577 0.77886ZM1.72516 1.45412L2.72063 1.35896L2.72069 1.35963L1.72516 1.45412ZM1.7252 1.4545L0.730839 1.56126L0.729674 1.54899L1.7252 1.4545ZM1.72538 1.45619L0.731365 1.56545L0.731095 1.56294L1.72538 1.45619ZM1.72733 1.47395L0.733778 1.58737L0.733321 1.58322L1.72733 1.47395ZM1.7374 1.5539L2.72834 1.41961L2.72834 1.41961L1.7374 1.5539ZM1.78789 1.86438L0.804932 2.04819L0.804931 2.04819L1.78789 1.86438ZM2.05219 2.86789L1.10773 3.1965L2.05219 2.86789ZM3.37365 4.65711L2.94813 5.56206H2.94813L3.37365 4.65711ZM4.17397 4.85358L4.14908 3.85389H4.14908L4.17397 4.85358ZM4.88117 4.71229L5.15291 5.67466L5.1528 5.67469L4.88117 4.71229ZM4.89816 4.70749L5.16995 5.66984L5.1699 5.66986L4.89816 4.70749ZM5.72777 4.53272L5.82701 5.52779H5.82701L5.72777 4.53272ZM5.97098 4.5183L5.95324 3.51846H5.95324L5.97098 4.5183ZM7.46296 4.86706L7.03743 5.77201L7.46296 4.86706ZM8.70566 6.82317L7.72436 7.01567L7.72436 7.01566L8.70566 6.82317ZM8.91667 8.8689L9.91469 8.80593V8.80593L8.91667 8.8689ZM8.94438 9.29645L7.9467 9.36461V9.36461L8.94438 9.29645ZM9.28307 11.5694L10.2363 11.2671V11.2671L9.28307 11.5694ZM10.1499 12.7445L9.7244 13.6494V13.6494L10.1499 12.7445ZM11.562 12.7066L11.2072 11.7716L11.2072 11.7716L11.562 12.7066ZM13.4212 11.635L13.9846 12.4612L13.9836 12.4619L13.4212 11.635ZM13.6021 11.5117L14.1659 12.3375L14.1654 12.3379L13.6021 11.5117ZM15.4705 10.3819L15.0591 9.47046L15.0591 9.47046L15.4705 10.3819ZM17.8589 10.2602L17.4334 11.1651V11.1651L17.8589 10.2602ZM19.6749 12.4649L20.608 12.1053L20.608 12.1053L19.6749 12.4649ZM19.7392 12.633L20.6735 12.2765L20.6736 12.2765L19.7392 12.633ZM20.0401 13.3281L19.1714 13.8234L19.1714 13.8234L20.0401 13.3281ZM20.396 13.6947L20.8215 12.7898L20.8215 12.7898L20.396 13.6947ZM20.7298 14.0044L21.4016 14.7452L20.474 15.5864L19.8588 14.4957L20.7298 14.0044ZM21.4468 13.3541L20.7751 12.6134L21.4468 13.3541ZM21.7767 13.46L20.7993 13.6714V13.6714L21.7767 13.46ZM22.5946 16.2957C22.0082 16.1075 21.438 16.6246 21.5682 17.2265L23.523 16.8037C23.7182 17.7066 22.8629 18.4823 21.9833 18.2L22.5946 16.2957ZM19.1313 15.184L22.5946 16.2957L21.9833 18.2L18.5201 17.0883L19.1313 15.184ZM19.4242 16.5383C19.8804 16.1246 19.7177 15.3722 19.1313 15.184L18.5201 17.0883C17.6405 16.806 17.3964 15.6774 18.0807 15.0568L19.4242 16.5383ZM20.312 15.7333L19.4242 16.5383L18.0807 15.0568L18.9684 14.2517L20.312 15.7333ZM19.6058 13.5757C19.742 13.8147 19.9018 13.9959 20.1199 14.1151L19.1605 15.8699C18.521 15.5203 18.1249 15.0162 17.8684 14.5665L19.6058 13.5757ZM19.2636 12.7897C19.3763 13.0872 19.4803 13.3556 19.6058 13.5757L17.8684 14.5665C17.6525 14.1878 17.4966 13.7709 17.3934 13.4985L19.2636 12.7897ZM19.2083 12.6447C19.2267 12.6923 19.2454 12.7418 19.2636 12.7896L17.3934 13.4985C17.3748 13.4495 17.3581 13.4054 17.3421 13.3638L19.2083 12.6447ZM17.6462 10.7127C18.5945 11.1586 18.9429 11.9558 19.2083 12.6447L17.3421 13.3638C17.2165 13.0378 17.13 12.8563 17.0441 12.7334C16.9762 12.6363 16.909 12.5761 16.7951 12.5226L17.6462 10.7127ZM15.6762 10.8377C16.3293 10.5429 17.0047 10.411 17.6462 10.7127L16.7951 12.5226C16.814 12.5314 16.8343 12.5375 16.8517 12.5403C16.8682 12.543 16.8711 12.541 16.8551 12.5425C16.8166 12.5462 16.7077 12.5664 16.4989 12.6606L15.6762 10.8377ZM13.8644 11.9381C14.4612 11.5314 15.076 11.1085 15.6762 10.8377L16.4989 12.6606C16.0919 12.8443 15.6343 13.1522 14.9907 13.5908L13.8644 11.9381ZM13.8463 11.9507L13.8463 11.9507L15.0088 13.5782L15.0088 13.5782L13.8463 11.9507ZM13.7019 12.0488L13.8647 11.9379L14.9904 13.591L14.8276 13.7019L13.7019 12.0488ZM11.7394 13.174C12.382 12.9302 13.0363 12.5015 13.7024 12.0485L14.8271 13.7022C14.1831 14.1402 13.3442 14.7042 12.4489 15.0439L11.7394 13.174ZM9.93716 13.197C10.5064 13.4646 11.1022 13.4158 11.7394 13.174L12.4489 15.0439C11.5093 15.4005 10.3136 15.584 9.08612 15.0069L9.93716 13.197ZM8.80645 11.7205C9.02675 12.4153 9.37347 12.9319 9.93716 13.197L9.08612 15.0069C7.82062 14.4118 7.209 13.2995 6.89999 12.325L8.80645 11.7205ZM8.44554 9.33053C8.50392 10.1851 8.58544 11.0235 8.80645 11.7205L6.89999 12.325C6.59821 11.3732 6.50812 10.3148 6.45019 9.46684L8.44554 9.33053ZM8.41495 8.86239C8.42476 9.01613 8.43468 9.17152 8.44554 9.33053L6.45019 9.46684C6.43897 9.30266 6.42878 9.14287 6.41901 8.98975L8.41495 8.86239ZM8.41698 8.92606V8.92607H6.41698V8.92606H8.41698ZM8.21501 6.91942C8.33024 7.50682 8.37194 8.18842 8.41495 8.86237L6.41901 8.98974C6.37335 8.27431 6.33727 7.73698 6.25241 7.30441L8.21501 6.91942ZM7.2502 5.31953C7.82428 5.58948 8.07844 6.22323 8.21501 6.91942L6.25241 7.30441C6.22666 7.17311 6.20123 7.07971 6.18021 7.0159C6.15904 6.95165 6.14443 6.92383 6.14263 6.92054C6.13793 6.91197 6.20489 7.03808 6.39915 7.12943L7.2502 5.31953ZM5.97985 5.01822C6.35079 5.01164 6.76097 5.08949 7.25019 5.31953L6.39915 7.12943C6.27359 7.07039 6.18646 7.04373 6.13063 7.03114C6.07738 7.01913 6.04182 7.01744 6.01533 7.01791L5.97985 5.01822ZM5.01698 5.19349C5.29635 5.11464 5.61304 5.02473 5.97985 5.01822L6.01532 7.01791C5.94343 7.01918 5.86364 7.03266 5.56025 7.11829L5.01698 5.19349ZM4.98575 5.20232L5.01662 5.19359L5.56061 7.11819L5.52974 7.12691L4.98575 5.20232ZM4.94151 5.21593L4.94152 5.21593L5.57398 7.1133L5.57397 7.1133L4.94151 5.21593ZM4.18641 5.35343C4.46301 5.34654 4.71259 5.27958 4.98557 5.20237L5.52991 7.12687C5.26271 7.20244 4.79296 7.33894 4.23619 7.35281L4.18641 5.35343ZM3.16089 5.10959C3.57745 5.30546 3.9044 5.36045 4.18641 5.35343L4.23619 7.35281C3.61588 7.36825 2.98198 7.23554 2.30985 6.91949L3.16089 5.10959ZM1.57996 3.03219C1.86912 3.86325 2.35879 4.73243 3.16089 5.10959L2.30985 6.91949C0.750469 6.18624 0.0258395 4.65169 -0.308969 3.68942L1.57996 3.03219ZM1.29641 1.95629C1.34927 2.23896 1.43775 2.62348 1.57996 3.03219L-0.308968 3.68942C-0.492555 3.16178 -0.603733 2.67567 -0.669511 2.3239L1.29641 1.95629ZM1.24193 1.62105C1.25265 1.70019 1.27003 1.81521 1.29641 1.95629L-0.669511 2.3239C-0.702752 2.14614 -0.725295 1.99782 -0.739957 1.88962L1.24193 1.62105ZM1.23056 1.53066C1.23288 1.55096 1.23657 1.5815 1.24193 1.62104L-0.739956 1.88963C-0.747304 1.83541 -0.752718 1.79093 -0.756535 1.7575L1.23056 1.53066ZM1.22753 1.5029L1.23106 1.53511L-0.757033 1.75305L-0.760563 1.72084L1.22753 1.5029ZM1.22729 1.50036L1.2283 1.51022L-0.761338 1.71353L-0.762345 1.70367L1.22729 1.50036ZM1.22733 1.50068L1.22766 1.50399L-0.762709 1.70004L-0.763035 1.69673L1.22733 1.50068ZM1.22736 1.50094L1.22748 1.50219L-0.763183 1.69522L-0.763304 1.69397L1.22736 1.50094ZM1.2274 1.50136L1.22745 1.50188L-0.763394 1.69304L-0.763444 1.69251L1.2274 1.50136ZM1.03544 2.5246C0.680954 2.5583 0.504206 2.57517 0.416146 2.58362C0.371593 2.5879 0.351295 2.58988 0.342407 2.59077C0.335865 2.59142 0.340541 2.59099 0.347938 2.59013C0.350377 2.58985 0.355863 2.58921 0.362927 2.58828C0.36757 2.58767 0.385065 2.58537 0.407378 2.5814C0.418432 2.57944 0.440885 2.57527 0.468938 2.56843C0.489296 2.56347 0.554098 2.54744 0.632181 2.51335C0.68572 2.48997 0.917968 2.38802 1.08169 2.12418C1.27787 1.80801 1.2262 1.48881 1.22747 1.50214L-0.763519 1.69173C-0.763519 1.69173 -0.764064 1.68583 -0.764574 1.67991C-0.765048 1.674 -0.766261 1.65626 -0.766894 1.64442C-0.768352 1.61376 -0.769327 1.56452 -0.76372 1.50426C-0.751319 1.37102 -0.709813 1.21807 -0.617728 1.06967C-0.454005 0.805819 -0.221747 0.703865 -0.168187 0.680477C-0.0900822 0.64637 -0.0252485 0.630335 -0.00484279 0.62536C0.0232584 0.618507 0.0457753 0.614332 0.0569158 0.612349C0.0793999 0.608347 0.0971537 0.606012 0.102184 0.60535C0.109637 0.60437 0.11564 0.603666 0.11877 0.603306C0.128931 0.602133 0.13914 0.601118 0.143668 0.600666C0.156921 0.599342 0.180916 0.597012 0.22496 0.592781C0.314094 0.584221 0.491754 0.567272 0.846108 0.533577L1.03544 2.5246ZM0.13728 0.600973L0.846118 0.533575L1.03543 2.5246L0.326589 2.59199L0.13728 0.600973ZM1.00223 1.77437C1.13968 1.7613 1.24051 1.63928 1.22744 1.50183L-0.763575 1.69114C-0.855059 0.728977 -0.149236 -0.125166 0.812922 -0.21665L1.00223 1.77437ZM0.729701 1.54927C0.742834 1.68667 0.864818 1.78744 1.00223 1.77437L0.81292 -0.21665C1.77479 -0.308107 2.6287 0.397251 2.72063 1.35896L0.729701 1.54927ZM0.729674 1.54899L0.729637 1.54861L2.72069 1.35963L2.72073 1.36001L0.729674 1.54899ZM0.731095 1.56294L0.730914 1.56125L2.71949 1.34775L2.71967 1.34943L0.731095 1.56294ZM0.733321 1.58322L0.731368 1.56545L2.71939 1.34692L2.72135 1.36469L0.733321 1.58322ZM0.746457 1.6882C0.740599 1.64497 0.736478 1.61095 0.733787 1.58737L2.72088 1.36053C2.72207 1.37097 2.72447 1.39106 2.72834 1.41961L0.746457 1.6882ZM0.804931 2.04819C0.776837 1.89794 0.758166 1.7746 0.746457 1.68819L2.72834 1.41961C2.73611 1.47697 2.74962 1.56702 2.77086 1.68058L0.804931 2.04819ZM1.10773 3.1965C0.955174 2.75805 0.861019 2.34813 0.804932 2.04819L2.77086 1.68058C2.81403 1.91147 2.88549 2.21978 2.99666 2.53927L1.10773 3.1965ZM2.94813 5.56206C1.95694 5.09599 1.40845 4.0608 1.10773 3.1965L2.99666 2.53927C3.25099 3.27024 3.56413 3.64165 3.79917 3.75217L2.94813 5.56206ZM4.19886 5.85327C3.83236 5.8624 3.42867 5.78802 2.94813 5.56206L3.79917 3.75217C3.91765 3.80788 3.99807 3.83195 4.04765 3.8429C4.09454 3.85326 4.12536 3.85448 4.14908 3.85389L4.19886 5.85327ZM5.1528 5.67469C4.87537 5.75299 4.56056 5.84427 4.19885 5.85327L4.14908 3.85389C4.2192 3.85214 4.29533 3.83857 4.60954 3.74989L5.1528 5.67469ZM5.1699 5.66986L5.15291 5.67466L4.60943 3.74992L4.62643 3.74512L5.1699 5.66986ZM5.82701 5.52779C5.59892 5.55053 5.39462 5.6064 5.16995 5.66984L4.62638 3.74513C4.84629 3.68302 5.20487 3.57991 5.62852 3.53766L5.82701 5.52779ZM5.98872 5.51814C5.93446 5.51911 5.88058 5.52244 5.82701 5.52779L5.62852 3.53766C5.73208 3.52733 5.84048 3.52046 5.95324 3.51846L5.98872 5.51814ZM7.03743 5.77201C6.61054 5.57127 6.27581 5.51305 5.98872 5.51814L5.95324 3.51846C6.57604 3.50741 7.21256 3.64428 7.88848 3.96211L7.03743 5.77201ZM7.72436 7.01566C7.59175 6.33963 7.37644 5.93141 7.03743 5.77201L7.88848 3.96211C9.17454 4.56684 9.54133 5.8883 9.68695 6.63067L7.72436 7.01566ZM7.91865 8.93186C7.87357 8.21728 7.83005 7.55444 7.72436 7.01567L9.68695 6.63067C9.82285 7.32344 9.87185 8.12693 9.91469 8.80593L7.91865 8.93186ZM7.9467 9.36461C7.93693 9.22153 7.92774 9.07593 7.91865 8.93186L9.91469 8.80593C9.92383 8.95095 9.93269 9.0913 9.94205 9.2283L7.9467 9.36461ZM8.32984 11.8716C8.08859 11.1108 8.00494 10.2172 7.9467 9.36461L9.94205 9.2283C10.0009 10.0899 10.0761 10.7619 10.2363 11.2671L8.32984 11.8716ZM9.7244 13.6494C8.98651 13.3025 8.57292 12.6383 8.32984 11.8716L10.2363 11.2671C10.3881 11.746 10.5341 11.8201 10.5754 11.8395L9.7244 13.6494ZM11.9167 13.6415C11.2024 13.9126 10.457 13.9939 9.7244 13.6494L10.5754 11.8395C10.6545 11.8767 10.8021 11.9254 11.2072 11.7716L11.9167 13.6415ZM13.9836 12.4619C13.3234 12.9109 12.6228 13.3736 11.9167 13.6415L11.2072 11.7716C11.6594 11.6 12.1736 11.2742 12.8588 10.8081L13.9836 12.4619ZM14.1654 12.3379L13.9846 12.4612L12.8578 10.8088L13.0387 10.6855L14.1654 12.3379ZM15.8819 11.2934C15.3463 11.5351 14.7739 11.9225 14.1659 12.3375L13.0382 10.6858C13.6112 10.2946 14.3332 9.79809 15.0591 9.47046L15.8819 11.2934ZM17.4334 11.1651C16.9846 10.9541 16.4778 11.0244 15.8819 11.2934L15.0591 9.47046C15.8711 9.10398 17.057 8.77808 18.2844 9.35523L17.4334 11.1651ZM18.7418 12.8245C18.4805 12.1465 18.1905 11.5211 17.4334 11.1651L18.2844 9.35523C19.8045 10.07 20.3286 11.3801 20.608 12.1053L18.7418 12.8245ZM18.8049 12.9895C18.7845 12.9359 18.7637 12.8814 18.7418 12.8245L20.608 12.1053C20.6313 12.1658 20.6532 12.2233 20.6735 12.2765L18.8049 12.9895ZM19.1714 13.8234C19.0176 13.5536 18.9075 13.2583 18.8049 12.9895L20.6736 12.2765C20.7922 12.5875 20.8469 12.7242 20.9088 12.8327L19.1714 13.8234ZM19.9704 14.5997C19.5961 14.4237 19.3527 14.1412 19.1714 13.8234L20.9088 12.8327C20.9363 12.8808 20.9423 12.8804 20.9228 12.8606C20.9123 12.85 20.8971 12.8365 20.8775 12.8225C20.8577 12.8086 20.8383 12.7977 20.8215 12.7898L19.9704 14.5997ZM19.8588 14.4957C19.8836 14.5396 19.9228 14.5773 19.9704 14.5997L20.8215 12.7898C21.1617 12.9498 21.4284 13.2074 21.6008 13.5131L19.8588 14.4957ZM22.1186 14.0949L21.4016 14.7452L20.058 13.2636L20.7751 12.6134L22.1186 14.0949ZM20.7993 13.6714C20.9295 14.2733 21.6624 14.5086 22.1186 14.0949L20.7751 12.6134C21.4594 11.9928 22.5588 12.3457 22.7541 13.2486L20.7993 13.6714ZM21.5682 17.2265L20.7993 13.6714L22.7541 13.2486L23.523 16.8037L21.5682 17.2265Z" fill="url(#paint0_linear_701_1230)" mask="url(#path-1-inside-1_701_1230)"/>
<defs>
<linearGradient id="paint0_linear_701_1230" x1="11.3894" y1="-9.27871" x2="-4.78575" y2="33.7326" gradientUnits="userSpaceOnUse">
<stop stop-color="#FF754C"/>
<stop offset="1" stop-color="#FFB7F5"/>
</linearGradient>
</defs>
</svg>
