<svg width="23" height="18" viewBox="0 0 23 18" fill="none" xmlns="http://www.w3.org/2000/svg">
<path fill-rule="evenodd" clip-rule="evenodd" d="M22.5456 1.01804C22.5781 0.867562 22.4355 0.73828 22.2889 0.785336L18.8257 1.89702C18.6791 1.94407 18.6384 2.13218 18.7525 2.2356L19.6402 3.04067C19.2114 3.2751 18.9334 3.61775 18.7371 3.96207C18.5664 4.26143 18.4365 4.60415 18.3285 4.88909C18.3101 4.93754 18.2924 4.98432 18.2752 5.02893C18.0181 5.69617 17.7865 6.14949 17.2206 6.41557C16.9648 6.53587 16.6266 6.52734 16.0876 6.28405C15.584 6.05676 15.0478 5.69137 14.4276 5.26871L14.4275 5.26869L14.2647 5.15782C13.6097 4.71231 12.8631 4.21598 12.0941 3.92418C11.3058 3.62501 10.41 3.50885 9.51164 3.93126C8.59705 4.36132 8.11787 5.17576 7.85322 6.01044C7.59183 6.83483 7.50602 7.78319 7.44786 8.63449C7.43682 8.79608 7.42677 8.95367 7.41698 9.1071V9.10712C7.37265 9.80181 7.33375 10.4113 7.23371 10.9213C7.10484 11.5782 6.92809 11.7601 6.82467 11.8087C6.46013 11.9801 6.20084 12.0187 5.99759 12.0151C5.77823 12.0112 5.57999 11.9595 5.28861 11.8773L5.25775 11.8686L5.25774 11.8686C4.98765 11.7922 4.62798 11.6904 4.2113 11.6801C3.76014 11.6688 3.27972 11.7627 2.73537 12.0186C1.55463 12.5738 0.947478 13.7757 0.635496 14.6724C0.472599 15.1405 0.372769 15.5759 0.313451 15.8931C0.283641 16.0525 0.263679 16.1842 0.250985 16.2778C0.244632 16.3247 0.240079 16.3622 0.237013 16.3891L0.233482 16.4213L0.232475 16.4312L0.232149 16.4345L0.232028 16.4357L0.231978 16.4362C0.231956 16.4365 0.231935 16.4367 0.940773 16.5041L0.231935 16.4367C0.192728 16.849 0.495223 17.2151 0.907577 17.2543C1.3198 17.2935 1.68577 16.9912 1.72516 16.5791L1.7252 16.5787L1.72538 16.577L1.72733 16.5592C1.72928 16.5422 1.73253 16.5152 1.7374 16.4793C1.74714 16.4074 1.76323 16.3007 1.78789 16.1688C1.83753 15.9034 1.92033 15.5443 2.05219 15.1653C2.32972 14.3677 2.76054 13.6644 3.37365 13.3761C3.72623 13.2103 3.97644 13.1747 4.17397 13.1796C4.38988 13.185 4.58535 13.2374 4.88117 13.3209L4.89816 13.3257C5.12046 13.3885 5.4019 13.4679 5.72777 13.5005C5.80633 13.5083 5.88747 13.5134 5.97098 13.5149C6.42592 13.5229 6.91155 13.4254 7.46296 13.1661C8.27549 12.784 8.56654 11.9192 8.70566 11.21C8.82645 10.5942 8.87271 9.86107 8.91667 9.16428C8.92579 9.01973 8.93481 8.87676 8.94438 8.73672C9.00293 7.87964 9.08235 7.09682 9.28307 6.4638C9.48052 5.84107 9.76033 5.47188 10.1499 5.28868C10.5558 5.09784 11.0022 5.11419 11.562 5.3266C12.1411 5.54636 12.7485 5.94066 13.4212 6.39815L13.6021 6.52148C14.1925 6.92467 14.8397 7.36656 15.4705 7.65125C16.1744 7.96896 17.0208 8.16708 17.8589 7.77299C18.9975 7.2376 19.4045 6.26984 19.6749 5.56827C19.6975 5.50954 19.7189 5.4536 19.7392 5.40018C19.8498 5.1103 19.9323 4.89427 20.0401 4.70511C20.1539 4.50564 20.2625 4.40122 20.396 4.33845C20.5423 4.26965 20.656 4.15964 20.7298 4.02878L21.4468 4.67903C21.5609 4.78245 21.7441 4.72364 21.7767 4.57315L22.5456 1.01804Z" fill="url(#paint0_linear_701_1242)"/>
<defs>
<linearGradient id="paint0_linear_701_1242" x1="32.152" y1="-0.866549" x2="-2.75671" y2="-12.6131" gradientUnits="userSpaceOnUse">
<stop stop-color="#0049C6"/>
<stop offset="1" stop-color="#CDF4FF"/>
</linearGradient>
</defs>
</svg>
